<?xml version="1.0" encoding="UTF-8" standalone="no"?>
<svg
   style="font-style:normal;font-weight:normal;font-size:12px;font-family:Dialog;color-interpolation:auto;fill:#000000;fill-opacity:1;stroke:#000000;stroke-width:1;stroke-linecap:square;stroke-linejoin:miter;stroke-miterlimit:10;stroke-dasharray:none;stroke-dashoffset:0;stroke-opacity:1;color-rendering:auto;image-rendering:auto;shape-rendering:auto;text-rendering:auto"
   width="1120"
   height="840"
   version="1.1"
   id="svg54"
   xmlns="http://www.w3.org/2000/svg"
   xmlns:svg="http://www.w3.org/2000/svg">
  <!--Generated by the Batik Graphics2D SVG Generator-->
  <defs
     id="genericDefs" />
  <g
     style="color-interpolation:linearRGB;fill:#262626;fill-opacity:0.149;stroke:#262626;stroke-width:1.3333;stroke-linecap:butt;stroke-linejoin:round;stroke-opacity:0.149;color-rendering:optimizeQuality;image-rendering:optimizeQuality;text-rendering:geometricPrecision"
     id="g28">
    <line
       y2="63.200001"
       style="fill:none"
       x1="574.48053"
       x2="574.48053"
       y1="747.79999"
       id="line11" />
    <line
       y2="405.5"
       style="fill:none"
       x1="1014"
       x2="146"
       y1="405.5"
       id="line18" />
  </g>
  <g
     style="color-interpolation:linearRGB;fill:#ff0000;stroke:#ff0000;stroke-width:1.3333;stroke-linecap:butt;stroke-linejoin:round;color-rendering:optimizeQuality;image-rendering:optimizeQuality;text-rendering:geometricPrecision"
     id="g53">
    <path
       d="m 927.6902,343.5471 -0.3665,-11.5456 -1.0981,-11.4991 -1.8251,-11.4062 -2.5448,-11.2676 -3.2545,-11.0835 -3.9508,-10.8547 -4.6313,-10.5824 -5.2931,-10.2672 -5.9337,-9.9109 -6.5504,-9.5146 -7.1405,-9.08 -7.7021,-8.6089 -8.2327,-8.103 -8.7299,-7.5645 -9.1921,-6.9956 -9.6174,-6.3986 -10.0038,-5.7757 -10.35,-5.1296 -10.6544,-4.4628 -10.9161,-3.7781 -11.1337,-3.0781 -11.3065,-2.3658 -11.4338,-1.644 -11.5151,-0.9154 -11.5499,-0.1833 -11.5383,0.5497 -11.4802,1.2803 -11.3759,2.0059 -11.2258,2.7233 -11.0304,3.4299 -10.7907,4.1225 -10.5075,4.7986 -10.182,5.4554 -9.8155,6.0902 -9.4095,6.7004 -8.9656,7.2838 -8.4855,7.8377 -7.9714,8.3601 -7.4251,8.8489 -6.8489,9.302 -6.2452,9.7176 -5.6162,10.0942 -4.9647,10.4301 -4.2932,10.7239 -3.6044,10.9746 -2.9012,11.1812 -2.1861,11.3426 -1.4623,11.4585 -0.7326,11.5281 v 11.5514 l 0.7326,11.5281 1.4623,11.4585 2.1861,11.3426 2.9012,11.1811 3.6044,10.9747 4.2932,10.7239 4.9647,10.4301 5.6162,10.0941 6.2452,9.7177 6.8489,9.302 7.4251,8.8488 7.9714,8.3602 8.4855,7.8377 8.9656,7.2837 9.4095,6.7005 9.8155,6.0902 10.182,5.4554 10.5075,4.7986 10.7907,4.1225 11.0304,3.4299 11.2258,2.7233 11.3759,2.0059 11.4802,1.2803 11.5383,0.5497 11.5499,-0.1833 11.5151,-0.9154 11.4338,-1.644 11.3065,-2.3658 11.1337,-3.0781 10.9161,-3.7781 10.6544,-4.4628 10.35,-5.1296 10.0038,-5.7757 9.6174,-6.3986 9.1921,-6.9956 8.7299,-7.5645 8.2327,-8.103 7.7021,-8.6089 7.1405,-9.08 6.5504,-9.5146 5.9337,-9.9109 5.2931,-10.2673 4.6313,-10.5823 3.9508,-10.8547 3.2545,-11.0835 2.5448,-11.2676 1.8251,-11.4063 1.0981,-11.499 0.3665,-11.5456"
       style="fill:none;fill-rule:evenodd"
       id="path51" />
    <path
       d="m 836.3875,185.734 -1.1152,-0.6359 -1.1195,-0.628 -1.1241,-0.6202 -1.1282,-0.6121 -1.1327,-0.6043 -1.1368,-0.5962 -1.141,-0.5882 -1.1452,-0.5801 -1.1492,-0.572 -1.1532,-0.564 -1.1571,-0.5557 -1.1611,-0.5476 -1.1649,-0.5394 -1.1686,-0.5312 -1.1724,-0.5229 -1.176,-0.5146 -1.1796,-0.5063 -1.1832,-0.498 -1.1866,-0.4897 -1.1901,-0.4812 -1.1934,-0.4729 -1.1968,-0.4644 -1.2,-0.456 -1.2031,-0.4475 -1.2063,-0.439 -1.2094,-0.4305 -1.2124,-0.4219 -1.2153,-0.4135 -1.2182,-0.4048 -1.221,-0.3961 -1.2238,-0.3877 -1.2265,-0.3789 -1.2291,-0.3703 -1.2318,-0.3616 -1.2342,-0.3529 -1.2367,-0.3442 -1.2391,-0.3355 -1.2414,-0.3268 -1.2437,-0.3179 -1.2459,-0.3092 -1.2481,-0.3004 -1.2501,-0.2916 -1.2522,-0.2828 -1.2541,-0.2739 -1.256,-0.2651 -1.2579,-0.2562 -1.2596,-0.2473 -1.2614,-0.2385 -1.263,-0.2295 -1.2646,-0.2207 -1.2661,-0.2117 -1.2676,-0.2028 -1.269,-0.1938 -1.2703,-0.1849 -1.2716,-0.1759 -1.2728,-0.167 -1.2739,-0.1579 -1.275,-0.149 -1.2761,-0.14 -1.277,-0.131 -1.2779,-0.122 -1.2787,-0.1129 -1.2795,-0.104 -1.2802,-0.0949 -1.2808,-0.0859 -1.2814,-0.0769 -1.2819,-0.0678 -1.2824,-0.0588 -1.2827,-0.0497 -1.2831,-0.0406 -1.2833,-0.0317 -1.2834,-0.0226 -1.2837,-0.0135 -1.2837,-0.005 -1.2837,0.005 -1.2836,0.0136 -1.2835,0.0227 -1.2833,0.0317 -1.283,0.0408 -1.2828,0.0498 -1.2824,0.0589 -1.2818,0.0679 -1.2815,0.0769 -1.2808,0.086 -1.2801,0.095 -1.2795,0.104 -1.2788,0.1131 -1.2778,0.1221 -1.277,0.1311 -1.276,0.14 -1.2751,0.1491 -1.2739,0.1581 -1.2728,0.167 -1.2716,0.176 -1.2702,0.185 -1.269,0.1939 -1.2676,0.2029 -1.2661,0.2118 -1.2646,0.2207"
       style="fill:none;fill-rule:evenodd;stroke:#00ff00"
       id="path52" />
    <path
       d="m 916.8237,405.5 -0.6893,-21.7127 -2.0649,-21.6253 -3.4324,-21.4508 -4.786,-21.19 -6.1203,-20.8437 -7.4299,-20.4136 -8.7097,-19.9012 -9.9544,-19.3088 -11.1589,-18.6386 -12.3187,-17.8932 -13.4286,-17.076 -14.4847,-16.1899 -15.4824,-15.2386 -16.4176,-14.226 L 773.059,126.6356 754.9725,114.6024 736.1593,103.7405 716.695,94.0938 696.6581,85.7009 676.1292,78.5958 655.191,72.807 633.9278,68.3579 612.4252,65.2663 590.7699,63.5447 569.049,63.2 l -21.6991,1.0337 -21.5898,2.4078 -21.3937,3.7723 -21.1113,5.1215 -20.744,6.4502 -20.2931,7.7529 -19.7606,9.0243 -19.1484,10.2595 -18.4591,11.4532 -17.6956,12.601 -16.8608,13.698 -15.958,14.7397 -14.9911,15.7221 -13.9637,16.6413 -12.8802,17.4935 -11.7446,18.2751 -10.562,18.9832 -9.3368,19.6149 -8.0738,20.1676 -6.7785,20.639 -5.4559,21.0274 -4.1112,21.3311 -2.7501,21.5489 -1.3778,21.68 v 21.7236 l 1.3778,21.68 2.7501,21.5489 4.1112,21.3311 5.4559,21.0274 6.7785,20.6391 8.0738,20.1675 9.3368,19.6149 10.562,18.9832 11.7446,18.2751 12.8802,17.4934 13.9637,16.6414 14.9911,15.7221 15.958,14.7397 16.8608,13.698 17.6956,12.6009 18.4591,11.4533 19.1484,10.2595 19.7606,9.0243 20.2931,7.7529 20.744,6.4502 21.1113,5.1215 21.3937,3.7723 21.5898,2.4079 21.6991,1.0336 21.7209,-0.3447 21.6553,-1.7215 21.5026,-3.0916 21.2632,-4.4492 20.9382,-5.7888 20.5289,-7.1051 20.0369,-8.3929 19.4643,-9.6467 18.8132,-10.8619 18.0865,-12.0332 17.2869,-13.156 16.4176,-14.226 15.4824,-15.2386 14.4847,-16.1899 13.4286,-17.0759 12.3187,-17.8933 11.1589,-18.6386 9.9544,-19.3088 8.7097,-19.9012 7.4299,-20.4136 6.1203,-20.8437 4.786,-21.19 3.4324,-21.4508 2.0649,-21.6253 0.6893,-21.7127"
       style="fill:none;fill-rule:evenodd;stroke:#0000ff"
       id="path53" />
  </g>
  <text
     xml:space="preserve"
     style="font-size:12px;font-family:Arial;-inkscape-font-specification:Arial;text-align:start;writing-mode:lr-tb;direction:ltr;text-anchor:start;fill:#00ff00;stroke:#00ff00;stroke-width:0.377953;stroke-linecap:round;stroke-linejoin:round"
     x="701.71472"
     y="151.59943"
     id="text55"><tspan
       id="tspan55"
       x="701.71472"
       y="151.59943">R</tspan></text>
  <text
     xml:space="preserve"
     style="font-size:12px;font-family:Arial;-inkscape-font-specification:Arial;text-align:start;writing-mode:lr-tb;direction:ltr;text-anchor:start;fill:#00ff00;stroke:#00ff00;stroke-width:0.377953;stroke-linecap:round;stroke-linejoin:round"
     x="849.07782"
     y="177.31989"
     id="text56"><tspan
       id="tspan56"
       x="849.07782"
       y="177.31989">R</tspan></text>
  <circle
     style="font-style:normal;font-weight:normal;font-size:12px;font-family:Dialog;color-interpolation:auto;fill:#0000ff;fill-opacity:1;stroke:#0000ff;stroke-width:0.377953;stroke-linecap:round;stroke-linejoin:round;stroke-miterlimit:10;stroke-dasharray:none;stroke-dashoffset:0;stroke-opacity:1;color-rendering:auto;image-rendering:auto;shape-rendering:auto;text-rendering:auto"
     id="path56-1"
     cx="789.19464"
     cy="166.1228"
     r="2.8181474" />
  <text
     xml:space="preserve"
     style="font-size:12px;font-family:Arial;-inkscape-font-specification:Arial;text-align:start;writing-mode:lr-tb;direction:ltr;text-anchor:start;fill:#ff0000;stroke:#ff0000;stroke-width:0.377953;stroke-linecap:round;stroke-linejoin:round"
     x="892.23834"
     y="393.91147"
     id="text58"><tspan
       id="tspan58"
       x="892.23834"
       y="393.91147">A  </tspan></text>
  <text
     xml:space="preserve"
     style="font-size:12px;font-family:Arial;-inkscape-font-specification:Arial;text-align:start;writing-mode:lr-tb;direction:ltr;text-anchor:start;fill:#ff0000;stroke:#ff0000;stroke-width:0.377953;stroke-linecap:round;stroke-linejoin:round"
     x="560"
     y="420"
     id="text59"><tspan
       id="tspan59"
       x="560"
       y="420">O</tspan></text>
  <text
     xml:space="preserve"
     style="font-size:12px;font-family:Arial;-inkscape-font-specification:Arial;text-align:start;writing-mode:lr-tb;direction:ltr;text-anchor:start;fill:#ff0000;stroke:#ff0000;stroke-width:0.377953;stroke-linecap:round;stroke-linejoin:round"
     x="784.18549"
     y="179.94543"
     id="text60"><tspan
       id="tspan60"
       x="784.18549"
       y="179.94543">A</tspan></text>
  <text
     xml:space="preserve"
     style="font-size:8px;font-family:Arial;-inkscape-font-specification:Arial;text-align:start;writing-mode:lr-tb;direction:ltr;text-anchor:start;fill:#ff0000;stroke:#ff0000;stroke-width:0.377953;stroke-linecap:round;stroke-linejoin:round"
     x="794.08142"
     y="180.13441"
     id="text61"><tspan
       id="tspan61"
       x="794.08142"
       y="180.13441">r</tspan></text>
  <text
     xml:space="preserve"
     style="font-size:8px;font-family:Arial;-inkscape-font-specification:Arial;text-align:start;writing-mode:lr-tb;direction:ltr;text-anchor:start;fill:#00ff00;stroke:#00ff00;stroke-width:0.377953;stroke-linecap:round;stroke-linejoin:round"
     x="860.1225"
     y="177.50887"
     id="text62"><tspan
       id="tspan62"
       x="860.1225"
       y="177.50887">2</tspan></text>
  <text
     xml:space="preserve"
     style="font-size:8px;font-family:Arial;-inkscape-font-specification:Arial;text-align:start;writing-mode:lr-tb;direction:ltr;text-anchor:start;fill:#00ff00;stroke:#00ff00;stroke-width:0.377953;stroke-linecap:round;stroke-linejoin:round"
     x="711.81146"
     y="151.78841"
     id="text63"><tspan
       id="tspan63"
       x="711.81146"
       y="151.78841">1</tspan></text>
  <path
     style="fill:#00ff00;stroke:#ff00ff;stroke-width:0.377953;stroke-linecap:round;stroke-linejoin:round"
     d="M 713.7191,164.3316 916.6258,405.77645"
     id="path63" />
  <path
     style="fill:#00ff00;stroke:#ff00ff;stroke-width:0.377953;stroke-linecap:round;stroke-linejoin:round"
     d="m 835.8299,185.41605 80.7959,220.3604"
     id="path64" />
  <text
     xml:space="preserve"
     style="font-size:8px;font-family:Arial;-inkscape-font-specification:Arial;text-align:start;writing-mode:lr-tb;direction:ltr;text-anchor:start;fill:#ff00ff;stroke:#ff00ff;stroke-width:0.377953;stroke-linecap:round;stroke-linejoin:round"
     x="707.96149"
     y="184.27954"
     id="text66"><tspan
       id="tspan66"
       x="707.96149"
       y="184.27954">α1</tspan></text>
  <text
     xml:space="preserve"
     style="font-size:8px;font-family:Arial;-inkscape-font-specification:Arial;text-align:start;writing-mode:lr-tb;direction:ltr;text-anchor:start;fill:#ff00ff;stroke:#ff00ff;stroke-width:0.377953;stroke-linecap:round;stroke-linejoin:round"
     x="823.73785"
     y="206.36888"
     id="text67"><tspan
       id="tspan67"
       x="823.73785"
       y="206.36888">α2</tspan></text>
  <path
     style="fill:#ff00ff;stroke:#ff00ff;stroke-width:0.377953;stroke-linecap:round;stroke-linejoin:round"
     d="M 574.48053,405.49999 252.7833,288.4118"
     id="path67" />
  <path
     style="fill:#ff00ff;stroke:#ff00ff;stroke-width:0.377953;stroke-linecap:round;stroke-linejoin:round"
     d="M 252.7833,288.4118 713.7191,164.3316"
     id="path68" />
  <path
     style="fill:#ff00ff;stroke:#ff00ff;stroke-width:0.377953;stroke-linecap:round;stroke-linejoin:round"
     d="M 835.8299,185.41605 252.7833,288.4118"
     id="path69" />
  <circle
     style="font-style:normal;font-weight:normal;font-size:12px;font-family:Dialog;color-interpolation:auto;fill:#0000ff;fill-opacity:1;stroke:#0000ff;stroke-width:0.377953;stroke-linecap:round;stroke-linejoin:round;stroke-miterlimit:10;stroke-dasharray:none;stroke-dashoffset:0;stroke-opacity:1;color-rendering:auto;image-rendering:auto;shape-rendering:auto;text-rendering:auto"
     id="path56-2"
     cx="252.59433"
     cy="288.22281"
     r="2.8181474" />
  <circle
     style="font-style:normal;font-weight:normal;font-size:12px;font-family:Dialog;color-interpolation:auto;fill:#0000ff;fill-opacity:1;stroke:#0000ff;stroke-width:0.377953;stroke-linecap:round;stroke-linejoin:round;stroke-miterlimit:10;stroke-dasharray:none;stroke-dashoffset:0;stroke-opacity:1;color-rendering:auto;image-rendering:auto;shape-rendering:auto;text-rendering:auto"
     id="path56-5"
     cx="835.5863"
     cy="185.25403"
     r="2.8181474" />
  <circle
     style="fill:#0000ff;stroke:#0000ff;stroke-width:0.377953;stroke-linecap:round;stroke-linejoin:round"
     id="path56"
     cx="714.05743"
     cy="164.36485"
     r="2.8181474" />
  <path
     style="fill:none;stroke:#ff00ff;stroke-width:0.377953;stroke-linecap:round;stroke-linejoin:round"
     d="m 702.7566,166.72945 c 0,0 3.13914,9.32991 18.29646,6.32905"
     id="path70" />
  <path
     style="fill:none;stroke:#ff00ff;stroke-width:0.377953;stroke-linecap:round;stroke-linejoin:round"
     d="m 826.40042,187.08178 c 0,0 -1.60135,12.98397 13.28928,8.86137"
     id="path71" />
  <text
     xml:space="preserve"
     style="font-style:normal;font-weight:normal;font-size:12px;font-family:Arial;-inkscape-font-specification:Arial;text-align:start;writing-mode:lr-tb;direction:ltr;text-anchor:start;color-interpolation:auto;fill:#ff0000;fill-opacity:1;stroke:#ff0000;stroke-width:0.377953;stroke-linecap:round;stroke-linejoin:round;stroke-miterlimit:10;stroke-dasharray:none;stroke-dashoffset:0;stroke-opacity:1;color-rendering:auto;image-rendering:auto;shape-rendering:auto;text-rendering:auto"
     x="226.20656"
     y="290.77884"
     id="text60-6"><tspan
       id="tspan60-2"
       x="226.20656"
       y="290.77884">A</tspan></text>
  <text
     xml:space="preserve"
     style="font-style:normal;font-weight:normal;font-size:8px;font-family:Arial;-inkscape-font-specification:Arial;text-align:start;writing-mode:lr-tb;direction:ltr;text-anchor:start;color-interpolation:auto;fill:#ff0000;fill-opacity:1;stroke:#ff0000;stroke-width:0.377953;stroke-linecap:round;stroke-linejoin:round;stroke-miterlimit:10;stroke-dasharray:none;stroke-dashoffset:0;stroke-opacity:1;color-rendering:auto;image-rendering:auto;shape-rendering:auto;text-rendering:auto"
     x="236.10249"
     y="290.9678"
     id="text61-9"><tspan
       id="tspan61-1"
       x="236.10249"
       y="290.9678">4</tspan></text>
</svg>
