<?xml version="1.0" encoding="UTF-8" standalone="no"?>
<svg
   style="fill-opacity:1; color-rendering:auto; color-interpolation:auto; text-rendering:auto; stroke:black; stroke-linecap:square; stroke-miterlimit:10; shape-rendering:auto; stroke-opacity:1; fill:black; stroke-dasharray:none; font-weight:normal; stroke-width:1; font-family:'Dialog'; font-style:normal; stroke-linejoin:miter; font-size:12px; stroke-dashoffset:0; image-rendering:auto;"
   width="3072"
   height="1780"
   version="1.1"
   id="svg88"
   sodipodi:docname="1-3-1.svg"
   inkscape:version="1.4.2 (f4327f4, 2025-05-13)"
   xmlns:inkscape="http://www.inkscape.org/namespaces/inkscape"
   xmlns:sodipodi="http://sodipodi.sourceforge.net/DTD/sodipodi-0.dtd"
   xmlns="http://www.w3.org/2000/svg"
   xmlns:svg="http://www.w3.org/2000/svg">
  <sodipodi:namedview
     id="namedview88"
     pagecolor="#ffffff"
     bordercolor="#000000"
     borderopacity="0.25"
     inkscape:showpageshadow="2"
     inkscape:pageopacity="0.0"
     inkscape:pagecheckerboard="0"
     inkscape:deskcolor="#d1d1d1"
     inkscape:zoom="0.55138439"
     inkscape:cx="1227.8186"
     inkscape:cy="872.34969"
     inkscape:window-width="1536"
     inkscape:window-height="938"
     inkscape:window-x="-6"
     inkscape:window-y="-6"
     inkscape:window-maximized="1"
     inkscape:current-layer="g88" />
  <!--Generated by the Batik Graphics2D SVG Generator-->
  <defs
     id="genericDefs" />
  <g
     id="g88">
    <defs
       id="defs1">
      <clipPath
         clipPathUnits="userSpaceOnUse"
         id="clipPath1">
        <path
           d="M0 0 L3072 0 L3072 1780 L0 1780 L0 0 Z"
           id="path1" />
      </clipPath>
    </defs>
    <g
       style="fill:white; stroke:white;"
       id="g1">
      <rect
         x="0"
         y="0"
         width="3072"
         style="clip-path:url(#clipPath1); stroke:none;"
         height="1780"
         clip-path="url(#clipPath1)"
         id="rect1" />
    </g>
    <g
       style="color-interpolation:sRGB;fill:#ffffff;stroke:#ffffff;color-rendering:optimizeSpeed;image-rendering:optimizeSpeed;shape-rendering:crispEdges;text-rendering:optimizeSpeed"
       id="g2"
       transform="translate(3.5266571,-8.8166427)">
      <rect
         x="0"
         width="3072"
         height="1780"
         y="0"
         style="stroke:none"
         id="rect2" />
      <path
         style="stroke:none"
         d="M 670.2771,1583 H 2508.7229 V 133 H 670.2771 Z"
         id="path2" />
      <path
         style="fill:none;stroke:#0000ff;stroke-width:0.378"
         d="m 2131.2909,458.47604 162.1206,444.0791"
         id="path99" />
    </g>
    <g
       style="stroke-linecap:butt; fill-opacity:0.149; fill:rgb(38,38,38); text-rendering:geometricPrecision; image-rendering:optimizeQuality; color-rendering:optimizeQuality; stroke-linejoin:round; stroke:rgb(38,38,38); color-interpolation:linearRGB; stroke-width:1.3333; stroke-opacity:0.149;"
       id="g22">
      <line
         y2="133"
         style="fill:none;"
         x1="918.402"
         x2="918.402"
         y1="1583"
         id="line2" />
      <line
         y2="133"
         style="fill:none;"
         x1="1263.036"
         x2="1263.036"
         y1="1583"
         id="line3" />
      <line
         y2="133"
         style="fill:none;"
         x1="1607.6702"
         x2="1607.6702"
         y1="1583"
         id="line4" />
      <line
         y2="133"
         style="fill:none;"
         x1="1952.3042"
         x2="1952.3042"
         y1="1583"
         id="line5" />
      <line
         y2="133"
         style="fill:none;"
         x1="2296.9382"
         x2="2296.9382"
         y1="1583"
         id="line6" />
      <line
         y2="1445.153"
         style="fill:none;"
         x1="2508.7229"
         x2="670.2771"
         y1="1445.153"
         id="line7" />
      <line
         y2="1307.2993"
         style="fill:none;"
         x1="2508.7229"
         x2="670.2771"
         y1="1307.2993"
         id="line8" />
      <line
         y2="1169.4457"
         style="fill:none;"
         x1="2508.7229"
         x2="670.2771"
         y1="1169.4457"
         id="line9" />
      <line
         y2="1031.592"
         style="fill:none;"
         x1="2508.7229"
         x2="670.2771"
         y1="1031.592"
         id="line10" />
      <line
         y2="893.7385"
         style="fill:none;"
         x1="2508.7229"
         x2="670.2771"
         y1="893.7385"
         id="line11" />
      <line
         y2="755.8848"
         style="fill:none;"
         x1="2508.7229"
         x2="670.2771"
         y1="755.8848"
         id="line12" />
      <line
         y2="618.0312"
         style="fill:none;"
         x1="2508.7229"
         x2="670.2771"
         y1="618.0312"
         id="line13" />
      <line
         y2="480.1776"
         style="fill:none;"
         x1="2508.7229"
         x2="670.2771"
         y1="480.1776"
         id="line14" />
      <line
         y2="342.3239"
         style="fill:none;"
         x1="2508.7229"
         x2="670.2771"
         y1="342.3239"
         id="line15" />
      <line
         y2="204.4703"
         style="fill:none;"
         x1="2508.7229"
         x2="670.2771"
         y1="204.4703"
         id="line16" />
      <line
         x1="670.2771"
         x2="2508.7229"
         y1="1583"
         style="stroke-linecap:square; fill-opacity:1; fill:none; stroke-opacity:1;"
         y2="1583"
         id="line17" />
      <line
         x1="918.402"
         x2="918.402"
         y1="1583"
         style="stroke-linecap:square; fill-opacity:1; fill:none; stroke-opacity:1;"
         y2="1564.6156"
         id="line18" />
      <line
         x1="1263.036"
         x2="1263.036"
         y1="1583"
         style="stroke-linecap:square; fill-opacity:1; fill:none; stroke-opacity:1;"
         y2="1564.6156"
         id="line19" />
      <line
         x1="1607.6702"
         x2="1607.6702"
         y1="1583"
         style="stroke-linecap:square; fill-opacity:1; fill:none; stroke-opacity:1;"
         y2="1564.6156"
         id="line20" />
      <line
         x1="1952.3042"
         x2="1952.3042"
         y1="1583"
         style="stroke-linecap:square; fill-opacity:1; fill:none; stroke-opacity:1;"
         y2="1564.6156"
         id="line21" />
      <line
         x1="2296.9382"
         x2="2296.9382"
         y1="1583"
         style="stroke-linecap:square; fill-opacity:1; fill:none; stroke-opacity:1;"
         y2="1564.6156"
         id="line22" />
    </g>
    <g
       transform="translate(918.402,1593.6667)"
       style="font-size:26.6667px; fill:rgb(38,38,38); text-rendering:geometricPrecision; color-rendering:optimizeQuality; image-rendering:optimizeQuality; stroke:rgb(38,38,38); color-interpolation:linearRGB;"
       id="g23">
      <path
         style="stroke:none;"
         d="M-26.1406 21.2031 L-26.1406 18.8125 L-18.8594 18.8125 L-18.8594 21.2031 L-26.1406 21.2031 ZM-8.0608 27 L-10.4358 27 L-10.4358 11.875 Q-11.2951 12.7031 -12.6858 13.5156 Q-14.0764 14.3281 -15.1858 14.7344 L-15.1858 12.4375 Q-13.1858 11.5156 -11.7014 10.1797 Q-10.217 8.8438 -9.592 7.5938 L-8.0608 7.5938 L-8.0608 27 ZM-2.1733 17.4688 Q-2.1733 14.0469 -1.4702 11.9531 Q-0.7671 9.8594 0.6236 8.7266 Q2.0142 7.5938 4.1236 7.5938 Q5.6861 7.5938 6.8579 8.2188 Q8.0298 8.8438 8.7954 10.0234 Q9.5611 11.2031 9.9907 12.8984 Q10.4204 14.5938 10.4204 17.4688 Q10.4204 20.875 9.7251 22.9609 Q9.0298 25.0469 7.6392 26.1875 Q6.2486 27.3281 4.1236 27.3281 Q1.3267 27.3281 -0.2671 25.3281 Q-2.1733 22.9062 -2.1733 17.4688 ZM0.2642 17.4688 Q0.2642 22.2344 1.3736 23.8047 Q2.4829 25.375 4.1236 25.375 Q5.7642 25.375 6.8736 23.7969 Q7.9829 22.2188 7.9829 17.4688 Q7.9829 12.7031 6.8736 11.1328 Q5.7642 9.5625 4.0923 9.5625 Q2.4673 9.5625 1.4829 10.9375 Q0.2642 12.7031 0.2642 17.4688 ZM12.6516 17.4688 Q12.6516 14.0469 13.3547 11.9531 Q14.0579 9.8594 15.4485 8.7266 Q16.8391 7.5938 18.9485 7.5938 Q20.511 7.5938 21.6829 8.2188 Q22.8547 8.8438 23.6204 10.0234 Q24.386 11.2031 24.8157 12.8984 Q25.2454 14.5938 25.2454 17.4688 Q25.2454 20.875 24.55 22.9609 Q23.8547 25.0469 22.4641 26.1875 Q21.0735 27.3281 18.9485 27.3281 Q16.1516 27.3281 14.5579 25.3281 Q12.6516 22.9062 12.6516 17.4688 ZM15.0891 17.4688 Q15.0891 22.2344 16.1985 23.8047 Q17.3079 25.375 18.9485 25.375 Q20.5891 25.375 21.6985 23.7969 Q22.8079 22.2188 22.8079 17.4688 Q22.8079 12.7031 21.6985 11.1328 Q20.5891 9.5625 18.9172 9.5625 Q17.2922 9.5625 16.3079 10.9375 Q15.0891 12.7031 15.0891 17.4688 Z"
         id="path22" />
    </g>
    <g
       transform="translate(1263.036,1593.6667)"
       style="font-size:26.6667px; fill:rgb(38,38,38); text-rendering:geometricPrecision; color-rendering:optimizeQuality; image-rendering:optimizeQuality; stroke:rgb(38,38,38); color-interpolation:linearRGB;"
       id="g24">
      <path
         style="stroke:none;"
         d="M-18.6406 21.2031 L-18.6406 18.8125 L-11.3594 18.8125 L-11.3594 21.2031 L-18.6406 21.2031 ZM-9.4983 21.9375 L-7.0139 21.7188 Q-6.7326 23.5469 -5.7248 24.4609 Q-4.717 25.375 -3.2951 25.375 Q-1.5764 25.375 -0.3889 24.0859 Q0.7986 22.7969 0.7986 20.6562 Q0.7986 18.625 -0.342 17.4531 Q-1.4826 16.2812 -3.3264 16.2812 Q-4.4826 16.2812 -5.4045 16.8047 Q-6.3264 17.3281 -6.8576 18.1562 L-9.0764 17.8594 L-7.2014 7.9375 L2.408 7.9375 L2.408 10.2031 L-5.3108 10.2031 L-6.3576 15.3906 Q-4.6076 14.1875 -2.7014 14.1875 Q-0.1701 14.1875 1.5721 15.9375 Q3.3142 17.6875 3.3142 20.4531 Q3.3142 23.0781 1.783 24.9844 Q-0.0764 27.3281 -3.2951 27.3281 Q-5.9358 27.3281 -7.5998 25.8516 Q-9.2639 24.375 -9.4983 21.9375 ZM5.3267 17.4688 Q5.3267 14.0469 6.0298 11.9531 Q6.7329 9.8594 8.1236 8.7266 Q9.5142 7.5938 11.6236 7.5938 Q13.1861 7.5938 14.3579 8.2188 Q15.5298 8.8438 16.2954 10.0234 Q17.0611 11.2031 17.4907 12.8984 Q17.9204 14.5938 17.9204 17.4688 Q17.9204 20.875 17.2251 22.9609 Q16.5298 25.0469 15.1392 26.1875 Q13.7486 27.3281 11.6236 27.3281 Q8.8267 27.3281 7.2329 25.3281 Q5.3267 22.9062 5.3267 17.4688 ZM7.7642 17.4688 Q7.7642 22.2344 8.8736 23.8047 Q9.9829 25.375 11.6236 25.375 Q13.2642 25.375 14.3736 23.7969 Q15.4829 22.2188 15.4829 17.4688 Q15.4829 12.7031 14.3736 11.1328 Q13.2642 9.5625 11.5923 9.5625 Q9.9673 9.5625 8.9829 10.9375 Q7.7642 12.7031 7.7642 17.4688 Z"
         id="path23" />
    </g>
    <g
       transform="translate(1607.6702,1593.6667)"
       style="font-size:26.6667px; fill:rgb(38,38,38); text-rendering:geometricPrecision; color-rendering:optimizeQuality; image-rendering:optimizeQuality; stroke:rgb(38,38,38); color-interpolation:linearRGB;"
       id="g25">
      <path
         style="stroke:none;"
         d="M-6.375 17.4688 Q-6.375 14.0469 -5.6719 11.9531 Q-4.9688 9.8594 -3.5781 8.7266 Q-2.1875 7.5938 -0.0781 7.5938 Q1.4844 7.5938 2.6562 8.2188 Q3.8281 8.8438 4.5938 10.0234 Q5.3594 11.2031 5.7891 12.8984 Q6.2188 14.5938 6.2188 17.4688 Q6.2188 20.875 5.5234 22.9609 Q4.8281 25.0469 3.4375 26.1875 Q2.0469 27.3281 -0.0781 27.3281 Q-2.875 27.3281 -4.4688 25.3281 Q-6.375 22.9062 -6.375 17.4688 ZM-3.9375 17.4688 Q-3.9375 22.2344 -2.8281 23.8047 Q-1.7188 25.375 -0.0781 25.375 Q1.5625 25.375 2.6719 23.7969 Q3.7812 22.2188 3.7812 17.4688 Q3.7812 12.7031 2.6719 11.1328 Q1.5625 9.5625 -0.1094 9.5625 Q-1.7344 9.5625 -2.7188 10.9375 Q-3.9375 12.7031 -3.9375 17.4688 Z"
         id="path24" />
    </g>
    <g
       transform="translate(1952.3042,1593.6667)"
       style="font-size:26.6667px; fill:rgb(38,38,38); text-rendering:geometricPrecision; color-rendering:optimizeQuality; image-rendering:optimizeQuality; stroke:rgb(38,38,38); color-interpolation:linearRGB;"
       id="g26">
      <path
         style="stroke:none;"
         d="M-13.875 21.9375 L-11.3906 21.7188 Q-11.1094 23.5469 -10.1016 24.4609 Q-9.0938 25.375 -7.6719 25.375 Q-5.9531 25.375 -4.7656 24.0859 Q-3.5781 22.7969 -3.5781 20.6562 Q-3.5781 18.625 -4.7188 17.4531 Q-5.8594 16.2812 -7.7031 16.2812 Q-8.8594 16.2812 -9.7812 16.8047 Q-10.7031 17.3281 -11.2344 18.1562 L-13.4531 17.8594 L-11.5781 7.9375 L-1.9688 7.9375 L-1.9688 10.2031 L-9.6875 10.2031 L-10.7344 15.3906 Q-8.9844 14.1875 -7.0781 14.1875 Q-4.5469 14.1875 -2.8047 15.9375 Q-1.0625 17.6875 -1.0625 20.4531 Q-1.0625 23.0781 -2.5938 24.9844 Q-4.4531 27.3281 -7.6719 27.3281 Q-10.3125 27.3281 -11.9766 25.8516 Q-13.6406 24.375 -13.875 21.9375 ZM0.9499 17.4688 Q0.9499 14.0469 1.6531 11.9531 Q2.3562 9.8594 3.7468 8.7266 Q5.1374 7.5938 7.2468 7.5938 Q8.8093 7.5938 9.9812 8.2188 Q11.1531 8.8438 11.9187 10.0234 Q12.6843 11.2031 13.114 12.8984 Q13.5437 14.5938 13.5437 17.4688 Q13.5437 20.875 12.8484 22.9609 Q12.1531 25.0469 10.7624 26.1875 Q9.3718 27.3281 7.2468 27.3281 Q4.4499 27.3281 2.8562 25.3281 Q0.9499 22.9062 0.9499 17.4688 ZM3.3874 17.4688 Q3.3874 22.2344 4.4968 23.8047 Q5.6062 25.375 7.2468 25.375 Q8.8874 25.375 9.9968 23.7969 Q11.1062 22.2188 11.1062 17.4688 Q11.1062 12.7031 9.9968 11.1328 Q8.8874 9.5625 7.2156 9.5625 Q5.5906 9.5625 4.6062 10.9375 Q3.3874 12.7031 3.3874 17.4688 Z"
         id="path25" />
    </g>
    <g
       transform="translate(2296.9382,1593.6667)"
       style="font-size:26.6667px; fill:rgb(38,38,38); text-rendering:geometricPrecision; color-rendering:optimizeQuality; image-rendering:optimizeQuality; stroke:rgb(38,38,38); color-interpolation:linearRGB;"
       id="g27">
      <path
         style="stroke:none;"
         d="M-12.4375 27 L-14.8125 27 L-14.8125 11.875 Q-15.6719 12.7031 -17.0625 13.5156 Q-18.4531 14.3281 -19.5625 14.7344 L-19.5625 12.4375 Q-17.5625 11.5156 -16.0781 10.1797 Q-14.5938 8.8438 -13.9688 7.5938 L-12.4375 7.5938 L-12.4375 27 ZM-6.5501 17.4688 Q-6.5501 14.0469 -5.8469 11.9531 Q-5.1438 9.8594 -3.7532 8.7266 Q-2.3626 7.5938 -0.2532 7.5938 Q1.3093 7.5938 2.4812 8.2188 Q3.6531 8.8438 4.4187 10.0234 Q5.1843 11.2031 5.614 12.8984 Q6.0437 14.5938 6.0437 17.4688 Q6.0437 20.875 5.3484 22.9609 Q4.6531 25.0469 3.2624 26.1875 Q1.8718 27.3281 -0.2532 27.3281 Q-3.0501 27.3281 -4.6438 25.3281 Q-6.5501 22.9062 -6.5501 17.4688 ZM-4.1126 17.4688 Q-4.1126 22.2344 -3.0032 23.8047 Q-1.8938 25.375 -0.2532 25.375 Q1.3874 25.375 2.4968 23.7969 Q3.6062 22.2188 3.6062 17.4688 Q3.6062 12.7031 2.4968 11.1328 Q1.3874 9.5625 -0.2844 9.5625 Q-1.9094 9.5625 -2.8938 10.9375 Q-4.1126 12.7031 -4.1126 17.4688 ZM8.2749 17.4688 Q8.2749 14.0469 8.978 11.9531 Q9.6811 9.8594 11.0717 8.7266 Q12.4624 7.5938 14.5717 7.5938 Q16.1342 7.5938 17.3061 8.2188 Q18.478 8.8438 19.2436 10.0234 Q20.0092 11.2031 20.4389 12.8984 Q20.8686 14.5938 20.8686 17.4688 Q20.8686 20.875 20.1733 22.9609 Q19.478 25.0469 18.0874 26.1875 Q16.6967 27.3281 14.5717 27.3281 Q11.7749 27.3281 10.1811 25.3281 Q8.2749 22.9062 8.2749 17.4688 ZM10.7124 17.4688 Q10.7124 22.2344 11.8217 23.8047 Q12.9311 25.375 14.5717 25.375 Q16.2124 25.375 17.3217 23.7969 Q18.4311 22.2188 18.4311 17.4688 Q18.4311 12.7031 17.3217 11.1328 Q16.2124 9.5625 14.5405 9.5625 Q12.9155 9.5625 11.9311 10.9375 Q10.7124 12.7031 10.7124 17.4688 Z"
         id="path26" />
    </g>
    <g
       transform="translate(1589.5009,1629.3334)"
       style="font-size:29.3333px; fill:rgb(38,38,38); text-rendering:geometricPrecision; color-rendering:optimizeQuality; image-rendering:optimizeQuality; stroke:rgb(38,38,38); color-interpolation:linearRGB;"
       id="g28">
      <path
         style="stroke:none;"
         d="M-9.875 30 L-1.8438 19.1875 L-8.9219 9.2344 L-5.6562 9.2344 L-1.8906 14.5625 Q-0.7031 16.2188 -0.2188 17.1094 Q0.4844 15.9844 1.4219 14.75 L5.6094 9.2344 L8.5938 9.2344 L1.2969 19.0312 L9.1562 30 L5.7656 30 L0.5312 22.5938 Q0.0938 21.9531 -0.375 21.2031 Q-1.0625 22.3438 -1.3594 22.7656 L-6.5781 30 L-9.875 30 Z"
         id="path27" />
    </g>
    <g
       style="fill:rgb(38,38,38); text-rendering:geometricPrecision; image-rendering:optimizeQuality; color-rendering:optimizeQuality; stroke-linejoin:round; stroke:rgb(38,38,38); color-interpolation:linearRGB; stroke-width:1.3333;"
       id="g38">
      <line
         y2="133"
         style="fill:none;"
         x1="670.2771"
         x2="670.2771"
         y1="1583"
         id="line28" />
      <line
         y2="1445.153"
         style="fill:none;"
         x1="670.2771"
         x2="688.6615"
         y1="1445.153"
         id="line29" />
      <line
         y2="1307.2993"
         style="fill:none;"
         x1="670.2771"
         x2="688.6615"
         y1="1307.2993"
         id="line30" />
      <line
         y2="1169.4457"
         style="fill:none;"
         x1="670.2771"
         x2="688.6615"
         y1="1169.4457"
         id="line31" />
      <line
         y2="1031.592"
         style="fill:none;"
         x1="670.2771"
         x2="688.6615"
         y1="1031.592"
         id="line32" />
      <line
         y2="893.7385"
         style="fill:none;"
         x1="670.2771"
         x2="688.6615"
         y1="893.7385"
         id="line33" />
      <line
         y2="755.8848"
         style="fill:none;"
         x1="670.2771"
         x2="688.6615"
         y1="755.8848"
         id="line34" />
      <line
         y2="618.0312"
         style="fill:none;"
         x1="670.2771"
         x2="688.6615"
         y1="618.0312"
         id="line35" />
      <line
         y2="480.1776"
         style="fill:none;"
         x1="670.2771"
         x2="688.6615"
         y1="480.1776"
         id="line36" />
      <line
         y2="342.3239"
         style="fill:none;"
         x1="670.2771"
         x2="688.6615"
         y1="342.3239"
         id="line37" />
      <line
         y2="204.4703"
         style="fill:none;"
         x1="670.2771"
         x2="688.6615"
         y1="204.4703"
         id="line38" />
    </g>
    <g
       transform="translate(659.6105,1445.153)"
       style="font-size:26.6667px; fill:rgb(38,38,38); text-rendering:geometricPrecision; color-rendering:optimizeQuality; image-rendering:optimizeQuality; stroke:rgb(38,38,38); color-interpolation:linearRGB;"
       id="g39">
      <path
         style="stroke:none;"
         d="M-38.1406 4.7031 L-38.1406 2.3125 L-30.8594 2.3125 L-30.8594 4.7031 L-38.1406 4.7031 ZM-25.3576 0.0156 Q-26.8264 -0.5156 -27.5373 -1.5234 Q-28.2483 -2.5312 -28.2483 -3.9219 Q-28.2483 -6.0312 -26.7326 -7.4688 Q-25.217 -8.9062 -22.7014 -8.9062 Q-20.1701 -8.9062 -18.6311 -7.4375 Q-17.092 -5.9688 -17.092 -3.8594 Q-17.092 -2.5156 -17.7951 -1.5156 Q-18.4983 -0.5156 -19.9358 0.0156 Q-18.1545 0.5938 -17.2248 1.8906 Q-16.2951 3.1875 -16.2951 4.9688 Q-16.2951 7.4531 -18.0451 9.1406 Q-19.7951 10.8281 -22.6545 10.8281 Q-25.5295 10.8281 -27.2795 9.1328 Q-29.0295 7.4375 -29.0295 4.9062 Q-29.0295 3.0312 -28.0764 1.7578 Q-27.1233 0.4844 -25.3576 0.0156 ZM-25.8264 -4 Q-25.8264 -2.625 -24.9436 -1.7578 Q-24.0608 -0.8906 -22.6545 -0.8906 Q-21.2795 -0.8906 -20.4045 -1.7578 Q-19.5295 -2.625 -19.5295 -3.875 Q-19.5295 -5.1719 -20.4279 -6.0625 Q-21.3264 -6.9531 -22.6701 -6.9531 Q-24.0295 -6.9531 -24.9279 -6.0859 Q-25.8264 -5.2188 -25.8264 -4 ZM-26.592 4.9219 Q-26.592 5.9375 -26.1076 6.8906 Q-25.6233 7.8438 -24.6779 8.3594 Q-23.7326 8.875 -22.6389 8.875 Q-20.9358 8.875 -19.8264 7.7812 Q-18.717 6.6875 -18.717 5 Q-18.717 3.2812 -19.8576 2.1641 Q-20.9983 1.0469 -22.717 1.0469 Q-24.3889 1.0469 -25.4904 2.1562 Q-26.592 3.2656 -26.592 4.9219 ZM-14.1733 0.9688 Q-14.1733 -2.4531 -13.4702 -4.5469 Q-12.7671 -6.6406 -11.3764 -7.7734 Q-9.9858 -8.9062 -7.8764 -8.9062 Q-6.3139 -8.9062 -5.1421 -8.2812 Q-3.9702 -7.6562 -3.2046 -6.4766 Q-2.4389 -5.2969 -2.0093 -3.6016 Q-1.5796 -1.9062 -1.5796 0.9688 Q-1.5796 4.375 -2.2749 6.4609 Q-2.9702 8.5469 -4.3608 9.6875 Q-5.7514 10.8281 -7.8764 10.8281 Q-10.6733 10.8281 -12.2671 8.8281 Q-14.1733 6.4062 -14.1733 0.9688 ZM-11.7358 0.9688 Q-11.7358 5.7344 -10.6264 7.3047 Q-9.5171 8.875 -7.8764 8.875 Q-6.2358 8.875 -5.1264 7.2969 Q-4.0171 5.7188 -4.0171 0.9688 Q-4.0171 -3.7969 -5.1264 -5.3672 Q-6.2358 -6.9375 -7.9077 -6.9375 Q-9.5327 -6.9375 -10.5171 -5.5625 Q-11.7358 -3.7969 -11.7358 0.9688 Z"
         id="path38" />
    </g>
    <g
       transform="translate(659.6105,1307.2993)"
       style="font-size:26.6667px; fill:rgb(38,38,38); text-rendering:geometricPrecision; color-rendering:optimizeQuality; image-rendering:optimizeQuality; stroke:rgb(38,38,38); color-interpolation:linearRGB;"
       id="g40">
      <path
         style="stroke:none;"
         d="M-38.1406 4.7031 L-38.1406 2.3125 L-30.8594 2.3125 L-30.8594 4.7031 L-38.1406 4.7031 ZM-16.6858 -4.0938 L-19.0451 -3.9062 Q-19.3576 -5.3125 -19.9514 -5.9375 Q-20.9045 -6.9531 -22.3108 -6.9531 Q-23.4514 -6.9531 -24.3108 -6.3281 Q-25.4358 -5.5 -26.0764 -3.9375 Q-26.717 -2.375 -26.7483 0.5312 Q-25.8889 -0.7656 -24.6545 -1.3984 Q-23.4201 -2.0312 -22.0608 -2.0312 Q-19.6858 -2.0312 -18.0139 -0.2891 Q-16.342 1.4531 -16.342 4.2188 Q-16.342 6.0469 -17.1311 7.6094 Q-17.9201 9.1719 -19.2873 10 Q-20.6545 10.8281 -22.4045 10.8281 Q-25.3576 10.8281 -27.2326 8.6484 Q-29.1076 6.4688 -29.1076 1.4531 Q-29.1076 -4.1406 -27.0451 -6.6875 Q-25.2326 -8.9062 -22.1701 -8.9062 Q-19.8889 -8.9062 -18.4358 -7.625 Q-16.9826 -6.3438 -16.6858 -4.0938 ZM-26.3733 4.2344 Q-26.3733 5.4688 -25.8576 6.5859 Q-25.342 7.7031 -24.4045 8.2891 Q-23.467 8.875 -22.4358 8.875 Q-20.9358 8.875 -19.8576 7.6641 Q-18.7795 6.4531 -18.7795 4.375 Q-18.7795 2.3594 -19.842 1.2109 Q-20.9045 0.0625 -22.5295 0.0625 Q-24.1389 0.0625 -25.2561 1.2109 Q-26.3733 2.3594 -26.3733 4.2344 ZM-14.1733 0.9688 Q-14.1733 -2.4531 -13.4702 -4.5469 Q-12.7671 -6.6406 -11.3764 -7.7734 Q-9.9858 -8.9062 -7.8764 -8.9062 Q-6.3139 -8.9062 -5.1421 -8.2812 Q-3.9702 -7.6562 -3.2046 -6.4766 Q-2.4389 -5.2969 -2.0093 -3.6016 Q-1.5796 -1.9062 -1.5796 0.9688 Q-1.5796 4.375 -2.2749 6.4609 Q-2.9702 8.5469 -4.3608 9.6875 Q-5.7514 10.8281 -7.8764 10.8281 Q-10.6733 10.8281 -12.2671 8.8281 Q-14.1733 6.4062 -14.1733 0.9688 ZM-11.7358 0.9688 Q-11.7358 5.7344 -10.6264 7.3047 Q-9.5171 8.875 -7.8764 8.875 Q-6.2358 8.875 -5.1264 7.2969 Q-4.0171 5.7188 -4.0171 0.9688 Q-4.0171 -3.7969 -5.1264 -5.3672 Q-6.2358 -6.9375 -7.9077 -6.9375 Q-9.5327 -6.9375 -10.5171 -5.5625 Q-11.7358 -3.7969 -11.7358 0.9688 Z"
         id="path39" />
    </g>
    <g
       transform="translate(659.6105,1169.4457)"
       style="font-size:26.6667px; fill:rgb(38,38,38); text-rendering:geometricPrecision; color-rendering:optimizeQuality; image-rendering:optimizeQuality; stroke:rgb(38,38,38); color-interpolation:linearRGB;"
       id="g41">
      <path
         style="stroke:none;"
         d="M-38.1406 4.7031 L-38.1406 2.3125 L-30.8594 2.3125 L-30.8594 4.7031 L-38.1406 4.7031 ZM-21.3889 10.5 L-21.3889 5.875 L-29.7795 5.875 L-29.7795 3.7031 L-20.967 -8.8281 L-19.0295 -8.8281 L-19.0295 3.7031 L-16.4045 3.7031 L-16.4045 5.875 L-19.0295 5.875 L-19.0295 10.5 L-21.3889 10.5 ZM-21.3889 3.7031 L-21.3889 -5.0156 L-27.4514 3.7031 L-21.3889 3.7031 ZM-14.1733 0.9688 Q-14.1733 -2.4531 -13.4702 -4.5469 Q-12.7671 -6.6406 -11.3764 -7.7734 Q-9.9858 -8.9062 -7.8764 -8.9062 Q-6.3139 -8.9062 -5.1421 -8.2812 Q-3.9702 -7.6562 -3.2046 -6.4766 Q-2.4389 -5.2969 -2.0093 -3.6016 Q-1.5796 -1.9062 -1.5796 0.9688 Q-1.5796 4.375 -2.2749 6.4609 Q-2.9702 8.5469 -4.3608 9.6875 Q-5.7514 10.8281 -7.8764 10.8281 Q-10.6733 10.8281 -12.2671 8.8281 Q-14.1733 6.4062 -14.1733 0.9688 ZM-11.7358 0.9688 Q-11.7358 5.7344 -10.6264 7.3047 Q-9.5171 8.875 -7.8764 8.875 Q-6.2358 8.875 -5.1264 7.2969 Q-4.0171 5.7188 -4.0171 0.9688 Q-4.0171 -3.7969 -5.1264 -5.3672 Q-6.2358 -6.9375 -7.9077 -6.9375 Q-9.5327 -6.9375 -10.5171 -5.5625 Q-11.7358 -3.7969 -11.7358 0.9688 Z"
         id="path40" />
    </g>
    <g
       transform="translate(659.6105,1031.592)"
       style="font-size:26.6667px; fill:rgb(38,38,38); text-rendering:geometricPrecision; color-rendering:optimizeQuality; image-rendering:optimizeQuality; stroke:rgb(38,38,38); color-interpolation:linearRGB;"
       id="g42">
      <path
         style="stroke:none;"
         d="M-38.1406 4.7031 L-38.1406 2.3125 L-30.8594 2.3125 L-30.8594 4.7031 L-38.1406 4.7031 ZM-16.5295 8.2188 L-16.5295 10.5 L-29.3108 10.5 Q-29.3264 9.6406 -29.0295 8.8594 Q-28.5451 7.5469 -27.467 6.2812 Q-26.3889 5.0156 -24.3576 3.3594 Q-21.217 0.7656 -20.1076 -0.7422 Q-18.9983 -2.25 -18.9983 -3.5938 Q-18.9983 -5 -20.0061 -5.9688 Q-21.0139 -6.9375 -22.6389 -6.9375 Q-24.342 -6.9375 -25.3733 -5.9141 Q-26.4045 -4.8906 -26.4201 -3.0625 L-28.8576 -3.3125 Q-28.6076 -6.0469 -26.9748 -7.4766 Q-25.342 -8.9062 -22.5764 -8.9062 Q-19.7951 -8.9062 -18.1779 -7.3672 Q-16.5608 -5.8281 -16.5608 -3.5469 Q-16.5608 -2.375 -17.0373 -1.2578 Q-17.5139 -0.1406 -18.6076 1.1016 Q-19.7014 2.3438 -22.2639 4.5 Q-24.4045 6.2969 -25.0061 6.9375 Q-25.6076 7.5781 -26.0139 8.2188 L-16.5295 8.2188 ZM-14.1733 0.9688 Q-14.1733 -2.4531 -13.4702 -4.5469 Q-12.7671 -6.6406 -11.3764 -7.7734 Q-9.9858 -8.9062 -7.8764 -8.9062 Q-6.3139 -8.9062 -5.1421 -8.2812 Q-3.9702 -7.6562 -3.2046 -6.4766 Q-2.4389 -5.2969 -2.0093 -3.6016 Q-1.5796 -1.9062 -1.5796 0.9688 Q-1.5796 4.375 -2.2749 6.4609 Q-2.9702 8.5469 -4.3608 9.6875 Q-5.7514 10.8281 -7.8764 10.8281 Q-10.6733 10.8281 -12.2671 8.8281 Q-14.1733 6.4062 -14.1733 0.9688 ZM-11.7358 0.9688 Q-11.7358 5.7344 -10.6264 7.3047 Q-9.5171 8.875 -7.8764 8.875 Q-6.2358 8.875 -5.1264 7.2969 Q-4.0171 5.7188 -4.0171 0.9688 Q-4.0171 -3.7969 -5.1264 -5.3672 Q-6.2358 -6.9375 -7.9077 -6.9375 Q-9.5327 -6.9375 -10.5171 -5.5625 Q-11.7358 -3.7969 -11.7358 0.9688 Z"
         id="path41" />
    </g>
    <g
       transform="translate(659.6105,893.7385)"
       style="font-size:26.6667px; fill:rgb(38,38,38); text-rendering:geometricPrecision; color-rendering:optimizeQuality; image-rendering:optimizeQuality; stroke:rgb(38,38,38); color-interpolation:linearRGB;"
       id="g43">
      <path
         style="stroke:none;"
         d="M-13.875 0.9688 Q-13.875 -2.4531 -13.1719 -4.5469 Q-12.4688 -6.6406 -11.0781 -7.7734 Q-9.6875 -8.9062 -7.5781 -8.9062 Q-6.0156 -8.9062 -4.8438 -8.2812 Q-3.6719 -7.6562 -2.9062 -6.4766 Q-2.1406 -5.2969 -1.7109 -3.6016 Q-1.2812 -1.9062 -1.2812 0.9688 Q-1.2812 4.375 -1.9766 6.4609 Q-2.6719 8.5469 -4.0625 9.6875 Q-5.4531 10.8281 -7.5781 10.8281 Q-10.375 10.8281 -11.9688 8.8281 Q-13.875 6.4062 -13.875 0.9688 ZM-11.4375 0.9688 Q-11.4375 5.7344 -10.3281 7.3047 Q-9.2188 8.875 -7.5781 8.875 Q-5.9375 8.875 -4.8281 7.2969 Q-3.7188 5.7188 -3.7188 0.9688 Q-3.7188 -3.7969 -4.8281 -5.3672 Q-5.9375 -6.9375 -7.6094 -6.9375 Q-9.2344 -6.9375 -10.2188 -5.5625 Q-11.4375 -3.7969 -11.4375 0.9688 Z"
         id="path42" />
    </g>
    <g
       transform="translate(659.6105,755.8848)"
       style="font-size:26.6667px; fill:rgb(38,38,38); text-rendering:geometricPrecision; color-rendering:optimizeQuality; image-rendering:optimizeQuality; stroke:rgb(38,38,38); color-interpolation:linearRGB;"
       id="g44">
      <path
         style="stroke:none;"
         d="M-16.4062 8.2188 L-16.4062 10.5 L-29.1875 10.5 Q-29.2031 9.6406 -28.9062 8.8594 Q-28.4219 7.5469 -27.3438 6.2812 Q-26.2656 5.0156 -24.2344 3.3594 Q-21.0938 0.7656 -19.9844 -0.7422 Q-18.875 -2.25 -18.875 -3.5938 Q-18.875 -5 -19.8828 -5.9688 Q-20.8906 -6.9375 -22.5156 -6.9375 Q-24.2188 -6.9375 -25.25 -5.9141 Q-26.2812 -4.8906 -26.2969 -3.0625 L-28.7344 -3.3125 Q-28.4844 -6.0469 -26.8516 -7.4766 Q-25.2188 -8.9062 -22.4531 -8.9062 Q-19.6719 -8.9062 -18.0547 -7.3672 Q-16.4375 -5.8281 -16.4375 -3.5469 Q-16.4375 -2.375 -16.9141 -1.2578 Q-17.3906 -0.1406 -18.4844 1.1016 Q-19.5781 2.3438 -22.1406 4.5 Q-24.2812 6.2969 -24.8828 6.9375 Q-25.4844 7.5781 -25.8906 8.2188 L-16.4062 8.2188 ZM-14.0501 0.9688 Q-14.0501 -2.4531 -13.3469 -4.5469 Q-12.6438 -6.6406 -11.2532 -7.7734 Q-9.8626 -8.9062 -7.7532 -8.9062 Q-6.1907 -8.9062 -5.0188 -8.2812 Q-3.8469 -7.6562 -3.0813 -6.4766 Q-2.3157 -5.2969 -1.886 -3.6016 Q-1.4563 -1.9062 -1.4563 0.9688 Q-1.4563 4.375 -2.1516 6.4609 Q-2.8469 8.5469 -4.2376 9.6875 Q-5.6282 10.8281 -7.7532 10.8281 Q-10.5501 10.8281 -12.1438 8.8281 Q-14.0501 6.4062 -14.0501 0.9688 ZM-11.6126 0.9688 Q-11.6126 5.7344 -10.5032 7.3047 Q-9.3938 8.875 -7.7532 8.875 Q-6.1126 8.875 -5.0032 7.2969 Q-3.8938 5.7188 -3.8938 0.9688 Q-3.8938 -3.7969 -5.0032 -5.3672 Q-6.1126 -6.9375 -7.7844 -6.9375 Q-9.4094 -6.9375 -10.3938 -5.5625 Q-11.6126 -3.7969 -11.6126 0.9688 Z"
         id="path43" />
    </g>
    <g
       transform="translate(659.6105,618.0312)"
       style="font-size:26.6667px; fill:rgb(38,38,38); text-rendering:geometricPrecision; color-rendering:optimizeQuality; image-rendering:optimizeQuality; stroke:rgb(38,38,38); color-interpolation:linearRGB;"
       id="g45">
      <path
         style="stroke:none;"
         d="M-21.2656 10.5 L-21.2656 5.875 L-29.6562 5.875 L-29.6562 3.7031 L-20.8438 -8.8281 L-18.9062 -8.8281 L-18.9062 3.7031 L-16.2812 3.7031 L-16.2812 5.875 L-18.9062 5.875 L-18.9062 10.5 L-21.2656 10.5 ZM-21.2656 3.7031 L-21.2656 -5.0156 L-27.3281 3.7031 L-21.2656 3.7031 ZM-14.0501 0.9688 Q-14.0501 -2.4531 -13.3469 -4.5469 Q-12.6438 -6.6406 -11.2532 -7.7734 Q-9.8626 -8.9062 -7.7532 -8.9062 Q-6.1907 -8.9062 -5.0188 -8.2812 Q-3.8469 -7.6562 -3.0813 -6.4766 Q-2.3157 -5.2969 -1.886 -3.6016 Q-1.4563 -1.9062 -1.4563 0.9688 Q-1.4563 4.375 -2.1516 6.4609 Q-2.8469 8.5469 -4.2376 9.6875 Q-5.6282 10.8281 -7.7532 10.8281 Q-10.5501 10.8281 -12.1438 8.8281 Q-14.0501 6.4062 -14.0501 0.9688 ZM-11.6126 0.9688 Q-11.6126 5.7344 -10.5032 7.3047 Q-9.3938 8.875 -7.7532 8.875 Q-6.1126 8.875 -5.0032 7.2969 Q-3.8938 5.7188 -3.8938 0.9688 Q-3.8938 -3.7969 -5.0032 -5.3672 Q-6.1126 -6.9375 -7.7844 -6.9375 Q-9.4094 -6.9375 -10.3938 -5.5625 Q-11.6126 -3.7969 -11.6126 0.9688 Z"
         id="path44" />
    </g>
    <g
       transform="translate(659.6105,480.1776)"
       style="font-size:26.6667px; fill:rgb(38,38,38); text-rendering:geometricPrecision; color-rendering:optimizeQuality; image-rendering:optimizeQuality; stroke:rgb(38,38,38); color-interpolation:linearRGB;"
       id="g46">
      <path
         style="stroke:none;"
         d="M-16.5625 -4.0938 L-18.9219 -3.9062 Q-19.2344 -5.3125 -19.8281 -5.9375 Q-20.7812 -6.9531 -22.1875 -6.9531 Q-23.3281 -6.9531 -24.1875 -6.3281 Q-25.3125 -5.5 -25.9531 -3.9375 Q-26.5938 -2.375 -26.625 0.5312 Q-25.7656 -0.7656 -24.5312 -1.3984 Q-23.2969 -2.0312 -21.9375 -2.0312 Q-19.5625 -2.0312 -17.8906 -0.2891 Q-16.2188 1.4531 -16.2188 4.2188 Q-16.2188 6.0469 -17.0078 7.6094 Q-17.7969 9.1719 -19.1641 10 Q-20.5312 10.8281 -22.2812 10.8281 Q-25.2344 10.8281 -27.1094 8.6484 Q-28.9844 6.4688 -28.9844 1.4531 Q-28.9844 -4.1406 -26.9219 -6.6875 Q-25.1094 -8.9062 -22.0469 -8.9062 Q-19.7656 -8.9062 -18.3125 -7.625 Q-16.8594 -6.3438 -16.5625 -4.0938 ZM-26.25 4.2344 Q-26.25 5.4688 -25.7344 6.5859 Q-25.2188 7.7031 -24.2812 8.2891 Q-23.3438 8.875 -22.3125 8.875 Q-20.8125 8.875 -19.7344 7.6641 Q-18.6562 6.4531 -18.6562 4.375 Q-18.6562 2.3594 -19.7188 1.2109 Q-20.7812 0.0625 -22.4062 0.0625 Q-24.0156 0.0625 -25.1328 1.2109 Q-26.25 2.3594 -26.25 4.2344 ZM-14.0501 0.9688 Q-14.0501 -2.4531 -13.3469 -4.5469 Q-12.6438 -6.6406 -11.2532 -7.7734 Q-9.8626 -8.9062 -7.7532 -8.9062 Q-6.1907 -8.9062 -5.0188 -8.2812 Q-3.8469 -7.6562 -3.0813 -6.4766 Q-2.3157 -5.2969 -1.886 -3.6016 Q-1.4563 -1.9062 -1.4563 0.9688 Q-1.4563 4.375 -2.1516 6.4609 Q-2.8469 8.5469 -4.2376 9.6875 Q-5.6282 10.8281 -7.7532 10.8281 Q-10.5501 10.8281 -12.1438 8.8281 Q-14.0501 6.4062 -14.0501 0.9688 ZM-11.6126 0.9688 Q-11.6126 5.7344 -10.5032 7.3047 Q-9.3938 8.875 -7.7532 8.875 Q-6.1126 8.875 -5.0032 7.2969 Q-3.8938 5.7188 -3.8938 0.9688 Q-3.8938 -3.7969 -5.0032 -5.3672 Q-6.1126 -6.9375 -7.7844 -6.9375 Q-9.4094 -6.9375 -10.3938 -5.5625 Q-11.6126 -3.7969 -11.6126 0.9688 Z"
         id="path45" />
    </g>
    <g
       transform="translate(659.6105,342.3239)"
       style="font-size:26.6667px; fill:rgb(38,38,38); text-rendering:geometricPrecision; color-rendering:optimizeQuality; image-rendering:optimizeQuality; stroke:rgb(38,38,38); color-interpolation:linearRGB;"
       id="g47">
      <path
         style="stroke:none;"
         d="M-25.2344 0.0156 Q-26.7031 -0.5156 -27.4141 -1.5234 Q-28.125 -2.5312 -28.125 -3.9219 Q-28.125 -6.0312 -26.6094 -7.4688 Q-25.0938 -8.9062 -22.5781 -8.9062 Q-20.0469 -8.9062 -18.5078 -7.4375 Q-16.9688 -5.9688 -16.9688 -3.8594 Q-16.9688 -2.5156 -17.6719 -1.5156 Q-18.375 -0.5156 -19.8125 0.0156 Q-18.0312 0.5938 -17.1016 1.8906 Q-16.1719 3.1875 -16.1719 4.9688 Q-16.1719 7.4531 -17.9219 9.1406 Q-19.6719 10.8281 -22.5312 10.8281 Q-25.4062 10.8281 -27.1562 9.1328 Q-28.9062 7.4375 -28.9062 4.9062 Q-28.9062 3.0312 -27.9531 1.7578 Q-27 0.4844 -25.2344 0.0156 ZM-25.7031 -4 Q-25.7031 -2.625 -24.8203 -1.7578 Q-23.9375 -0.8906 -22.5312 -0.8906 Q-21.1562 -0.8906 -20.2812 -1.7578 Q-19.4062 -2.625 -19.4062 -3.875 Q-19.4062 -5.1719 -20.3047 -6.0625 Q-21.2031 -6.9531 -22.5469 -6.9531 Q-23.9062 -6.9531 -24.8047 -6.0859 Q-25.7031 -5.2188 -25.7031 -4 ZM-26.4688 4.9219 Q-26.4688 5.9375 -25.9844 6.8906 Q-25.5 7.8438 -24.5547 8.3594 Q-23.6094 8.875 -22.5156 8.875 Q-20.8125 8.875 -19.7031 7.7812 Q-18.5938 6.6875 -18.5938 5 Q-18.5938 3.2812 -19.7344 2.1641 Q-20.875 1.0469 -22.5938 1.0469 Q-24.2656 1.0469 -25.3672 2.1562 Q-26.4688 3.2656 -26.4688 4.9219 ZM-14.0501 0.9688 Q-14.0501 -2.4531 -13.3469 -4.5469 Q-12.6438 -6.6406 -11.2532 -7.7734 Q-9.8626 -8.9062 -7.7532 -8.9062 Q-6.1907 -8.9062 -5.0188 -8.2812 Q-3.8469 -7.6562 -3.0813 -6.4766 Q-2.3157 -5.2969 -1.886 -3.6016 Q-1.4563 -1.9062 -1.4563 0.9688 Q-1.4563 4.375 -2.1516 6.4609 Q-2.8469 8.5469 -4.2376 9.6875 Q-5.6282 10.8281 -7.7532 10.8281 Q-10.5501 10.8281 -12.1438 8.8281 Q-14.0501 6.4062 -14.0501 0.9688 ZM-11.6126 0.9688 Q-11.6126 5.7344 -10.5032 7.3047 Q-9.3938 8.875 -7.7532 8.875 Q-6.1126 8.875 -5.0032 7.2969 Q-3.8938 5.7188 -3.8938 0.9688 Q-3.8938 -3.7969 -5.0032 -5.3672 Q-6.1126 -6.9375 -7.7844 -6.9375 Q-9.4094 -6.9375 -10.3938 -5.5625 Q-11.6126 -3.7969 -11.6126 0.9688 Z"
         id="path46" />
    </g>
    <g
       transform="translate(659.6105,204.4703)"
       style="font-size:26.6667px; fill:rgb(38,38,38); text-rendering:geometricPrecision; color-rendering:optimizeQuality; image-rendering:optimizeQuality; stroke:rgb(38,38,38); color-interpolation:linearRGB;"
       id="g48">
      <path
         style="stroke:none;"
         d="M-34.9375 10.5 L-37.3125 10.5 L-37.3125 -4.625 Q-38.1719 -3.7969 -39.5625 -2.9844 Q-40.9531 -2.1719 -42.0625 -1.7656 L-42.0625 -4.0625 Q-40.0625 -4.9844 -38.5781 -6.3203 Q-37.0938 -7.6562 -36.4688 -8.9062 L-34.9375 -8.9062 L-34.9375 10.5 ZM-29.0501 0.9688 Q-29.0501 -2.4531 -28.3469 -4.5469 Q-27.6438 -6.6406 -26.2532 -7.7734 Q-24.8626 -8.9062 -22.7532 -8.9062 Q-21.1907 -8.9062 -20.0188 -8.2812 Q-18.8469 -7.6562 -18.0813 -6.4766 Q-17.3157 -5.2969 -16.886 -3.6016 Q-16.4563 -1.9062 -16.4563 0.9688 Q-16.4563 4.375 -17.1516 6.4609 Q-17.8469 8.5469 -19.2376 9.6875 Q-20.6282 10.8281 -22.7532 10.8281 Q-25.5501 10.8281 -27.1438 8.8281 Q-29.0501 6.4062 -29.0501 0.9688 ZM-26.6126 0.9688 Q-26.6126 5.7344 -25.5032 7.3047 Q-24.3938 8.875 -22.7532 8.875 Q-21.1126 8.875 -20.0032 7.2969 Q-18.8938 5.7188 -18.8938 0.9688 Q-18.8938 -3.7969 -20.0032 -5.3672 Q-21.1126 -6.9375 -22.7844 -6.9375 Q-24.4094 -6.9375 -25.3938 -5.5625 Q-26.6126 -3.7969 -26.6126 0.9688 ZM-14.2251 0.9688 Q-14.2251 -2.4531 -13.522 -4.5469 Q-12.8189 -6.6406 -11.4283 -7.7734 Q-10.0376 -8.9062 -7.9283 -8.9062 Q-6.3658 -8.9062 -5.1939 -8.2812 Q-4.022 -7.6562 -3.2564 -6.4766 Q-2.4908 -5.2969 -2.0611 -3.6016 Q-1.6314 -1.9062 -1.6314 0.9688 Q-1.6314 4.375 -2.3267 6.4609 Q-3.022 8.5469 -4.4126 9.6875 Q-5.8033 10.8281 -7.9283 10.8281 Q-10.7251 10.8281 -12.3189 8.8281 Q-14.2251 6.4062 -14.2251 0.9688 ZM-11.7876 0.9688 Q-11.7876 5.7344 -10.6783 7.3047 Q-9.5689 8.875 -7.9283 8.875 Q-6.2876 8.875 -5.1783 7.2969 Q-4.0689 5.7188 -4.0689 0.9688 Q-4.0689 -3.7969 -5.1783 -5.3672 Q-6.2876 -6.9375 -7.9595 -6.9375 Q-9.5845 -6.9375 -10.5689 -5.5625 Q-11.7876 -3.7969 -11.7876 0.9688 Z"
         id="path47" />
    </g>
    <g
       transform="translate(606.6105,857.9993) rotate(-90)"
       style="font-size:29.3333px; fill:rgb(38,38,38); text-rendering:geometricPrecision; color-rendering:optimizeQuality; image-rendering:optimizeQuality; stroke:rgb(38,38,38); color-interpolation:linearRGB;"
       id="g49">
      <path
         style="stroke:none;"
         d="M-1.9219 -7 L-1.9219 -15.7969 L-9.9219 -27.7656 L-6.5781 -27.7656 L-2.4844 -21.5 Q-1.3438 -19.75 -0.375 -17.9844 Q0.5625 -19.6094 1.8906 -21.6562 L5.9219 -27.7656 L9.1094 -27.7656 L0.8281 -15.7969 L0.8281 -7 L-1.9219 -7 Z"
         id="path48" />
    </g>
    <g
       style="stroke-linecap:butt; fill:gray; text-rendering:geometricPrecision; image-rendering:optimizeQuality; color-rendering:optimizeQuality; stroke-linejoin:bevel; stroke-dasharray:16,16; stroke:gray; color-interpolation:linearRGB; stroke-width:4; stroke-miterlimit:1;"
       id="g50">
      <path
         d="M2296.9382 893.7385 L2296.8328 881.6755 L2296.5161 869.6163 L2295.9883 857.5645 L2295.2498 845.5238 L2294.3008 833.4979 L2293.1414 821.4904 L2291.772 809.5049 L2290.1929 797.5454 L2288.405 785.6153 L2286.4084 773.7183 L2284.2041 761.858 L2281.7925 750.0382 L2279.1743 738.2624 L2276.3503 726.5342 L2273.3218 714.8572 L2270.0891 703.235 L2266.6538 691.6713 L2263.0164 680.1693 L2259.1785 668.7328 L2255.1409 657.3652 L2250.9048 646.07 L2246.4719 634.8506 L2241.8433 623.7106 L2237.0203 612.6533 L2232.0046 601.6821 L2226.7979 590.8003 L2221.4014 580.0114 L2215.8167 569.3185 L2210.0459 558.725 L2204.0906 548.2341 L2197.9526 537.8491 L2191.6338 527.5731 L2185.136 517.4092 L2178.4614 507.3606 L2171.6121 497.4303 L2164.5898 487.6215 L2157.397 477.937 L2150.0359 468.3799 L2142.5088 458.9531 L2134.8176 449.6594 L2126.9651 440.5018 L2118.9534 431.4831 L2110.7852 422.6059 L2102.4626 413.873 L2093.9888 405.2872 L2085.366 396.8509 L2076.5967 388.5668 L2067.6838 380.4375 L2058.6301 372.4654 L2049.4382 364.653 L2040.1112 357.0026 L2030.6515 349.5167 L2021.0623 342.1974 L2011.3464 335.0471 L2001.507 328.0679 L1991.5468 321.262 L1981.4691 314.6314 L1971.2769 308.1783 L1960.9733 301.9044 L1950.5615 295.812 L1940.0447 289.9026 L1929.426 284.1782 L1918.7089 278.6405 L1907.8964 273.2912 L1896.9919 268.1319 L1885.9989 263.1644 L1874.9205 258.3899 L1863.7604 253.81 L1852.5217 249.4262 L1841.2081 245.2397 L1829.823 241.2519 L1818.3698 237.4639 L1806.8521 233.877 L1795.2733 230.4922 L1783.6371 227.3105 L1771.9469 224.333 L1760.2065 221.5605 L1748.4193 218.9939 L1736.5891 216.634 L1724.7194 214.4814 L1712.8137 212.537 L1700.8759 210.8012 L1688.9095 209.2746 L1676.9182 207.9576 L1664.9058 206.8508 L1652.8759 205.9543 L1640.8319 205.2685 L1628.778 204.7935 L1616.7175 204.5297 L1604.6543 204.4769 L1592.5919 204.6353 L1580.5342 205.0047 L1568.4849 205.585 L1556.4475 206.3762 L1544.4258 207.3779 L1532.4235 208.5899 L1520.4442 210.0117 L1508.4916 211.643 L1496.5695 213.4832 L1484.6813 215.5318 L1472.8308 217.788 L1461.0217 220.2514 L1449.2574 222.921 L1437.5417 225.7961 L1425.8781 228.8759 L1414.2701 232.1592 L1402.7214 235.6453 L1391.2356 239.3328 L1379.8159 243.2209 L1368.4662 247.3082 L1357.1896 251.5935 L1345.9897 256.0755 L1334.8701 260.7529 L1323.834 265.6241 L1312.8848 270.6877 L1302.026 275.9421 L1291.2606 281.3859 L1280.5924 287.0171 L1270.0242 292.8343 L1259.5594 298.8354 L1249.2014 305.0189 L1238.9531 311.3826 L1228.8177 317.9247 L1218.7985 324.6432 L1208.8983 331.5359 L1199.1202 338.601 L1189.4673 345.836 L1179.9425 353.2389 L1170.5487 360.8074 L1161.2888 368.5391 L1152.1656 376.4316 L1143.1821 384.4826 L1134.3407 392.6897 L1125.6443 401.0502 L1117.0956 409.5615 L1108.6971 418.2213 L1100.4515 427.0266 L1092.3613 435.9749 L1084.429 445.0635 L1076.6567 454.2895 L1069.0474 463.65 L1061.6028 473.1423 L1054.3256 482.7635 L1047.2178 492.5105 L1040.2817 502.3805 L1033.5195 512.3702 L1026.9331 522.4769 L1020.5246 532.6972 L1014.296 543.0282 L1008.249 553.4666 L1002.3857 564.0091 L996.7079 574.6527 L991.2171 585.394 L985.9152 596.2298 L980.8036 607.1567 L975.8842 618.1714 L971.1583 629.2705 L966.6273 640.4506 L962.2927 651.7083 L958.1558 663.0402 L954.2178 674.4426 L950.48 685.9123 L946.9434 697.4456 L943.6093 709.0391 L940.4786 720.6891 L937.5522 732.3922 L934.8311 744.1446 L932.3162 755.9429 L930.008 767.7833 L927.9075 779.6624 L926.0151 791.5764 L924.3316 803.5217 L922.8574 815.4947 L921.5929 827.4916 L920.5386 839.5088 L919.6948 851.5425 L919.0616 863.5893 L918.6395 875.6453 L918.4283 887.7068 L918.4283 899.7701 L918.6395 911.8316 L919.0616 923.8876 L919.6948 935.9343 L920.5386 947.9681 L921.5929 959.9853 L922.8574 971.9822 L924.3316 983.9551 L926.0151 995.9005 L927.9075 1007.8145 L930.008 1019.6935 L932.3162 1031.5341 L934.8311 1043.3323 L937.5522 1055.0847 L940.4786 1066.7877 L943.6093 1078.4377 L946.9434 1090.0312 L950.48 1101.5646 L954.2178 1113.0343 L958.1558 1124.4368 L962.2927 1135.7686 L966.6273 1147.0262 L971.1583 1158.2064 L975.8842 1169.3054 L980.8036 1180.3202 L985.9152 1191.2471 L991.2171 1202.0829 L996.7079 1212.8241 L1002.3857 1223.4678 L1008.249 1234.0104 L1014.296 1244.4487 L1020.5246 1254.7797 L1026.9331 1265 L1033.5195 1275.1067 L1040.2817 1285.0964 L1047.2178 1294.9664 L1054.3256 1304.7134 L1061.6028 1314.3346 L1069.0474 1323.8269 L1076.6567 1333.1874 L1084.429 1342.4135 L1092.3613 1351.502 L1100.4515 1360.4503 L1108.6971 1369.2556 L1117.0956 1377.9154 L1125.6443 1386.4268 L1134.3407 1394.7872 L1143.1821 1402.9943 L1152.1656 1411.0453 L1161.2888 1418.9377 L1170.5487 1426.6694 L1179.9425 1434.2379 L1189.4673 1441.6409 L1199.1202 1448.8759 L1208.8983 1455.9409 L1218.7985 1462.8337 L1228.8177 1469.5521 L1238.9531 1476.0944 L1249.2014 1482.458 L1259.5594 1488.6415 L1270.0242 1494.6426 L1280.5924 1500.4597 L1291.2606 1506.0911 L1302.026 1511.5348 L1312.8848 1516.7892 L1323.834 1521.8528 L1334.8701 1526.724 L1345.9897 1531.4014 L1357.1896 1535.8833 L1368.4662 1540.1687 L1379.8159 1544.256 L1391.2356 1548.144 L1402.7214 1551.8317 L1414.2701 1555.3176 L1425.8781 1558.6011 L1437.5417 1561.6808 L1449.2574 1564.5559 L1461.0217 1567.2255 L1472.8308 1569.6888 L1484.6813 1571.9452 L1496.5695 1573.9938 L1508.4916 1575.8339 L1520.4442 1577.4651 L1532.4235 1578.887 L1544.4258 1580.099 L1556.4475 1581.1007 L1568.4849 1581.8918 L1580.5342 1582.4722 L1592.5919 1582.8417 L1604.6543 1583 L1616.7175 1582.9473 L1628.778 1582.6833 L1640.8319 1582.2084 L1652.8759 1581.5226 L1664.9058 1580.6261 L1676.9182 1579.5193 L1688.9095 1578.2023 L1700.8759 1576.6757 L1712.8137 1574.9399 L1724.7194 1572.9955 L1736.5891 1570.8429 L1748.4193 1568.483 L1760.2065 1565.9164 L1771.9469 1563.1439 L1783.6371 1560.1664 L1795.2733 1556.9847 L1806.8521 1553.5999 L1818.3698 1550.0129 L1829.823 1546.225 L1841.2081 1542.2372 L1852.5217 1538.0507 L1863.7604 1533.6669 L1874.9205 1529.087 L1885.9989 1524.3125 L1896.9919 1519.345 L1907.8964 1514.1857 L1918.7089 1508.8364 L1929.426 1503.2987 L1940.0447 1497.5743 L1950.5615 1491.6649 L1960.9733 1485.5724 L1971.2769 1479.2986 L1981.4691 1472.8455 L1991.5468 1466.2148 L2001.507 1459.4089 L2011.3464 1452.4298 L2021.0623 1445.2795 L2030.6515 1437.9602 L2040.1112 1430.4742 L2049.4382 1422.8239 L2058.6301 1415.0115 L2067.6838 1407.0394 L2076.5967 1398.91 L2085.366 1390.626 L2093.9888 1382.1897 L2102.4626 1373.6039 L2110.7852 1364.871 L2118.9534 1355.9938 L2126.9651 1346.9751 L2134.8176 1337.8175 L2142.5088 1328.5238 L2150.0359 1319.097 L2157.397 1309.5399 L2164.5898 1299.8555 L2171.6121 1290.0466 L2178.4614 1280.1163 L2185.136 1270.0677 L2191.6338 1259.9038 L2197.9526 1249.6278 L2204.0906 1239.2428 L2210.0459 1228.7518 L2215.8167 1218.1584 L2221.4014 1207.4656 L2226.7979 1196.6765 L2232.0046 1185.7948 L2237.0203 1174.8236 L2241.8433 1163.7662 L2246.4719 1152.6262 L2250.9048 1141.4069 L2255.1409 1130.1117 L2259.1785 1118.7441 L2263.0164 1107.3076 L2266.6538 1095.8057 L2270.0891 1084.2418 L2273.3218 1072.6196 L2276.3503 1060.9426 L2279.1743 1049.2145 L2281.7925 1037.4386 L2284.2041 1025.6188 L2286.4084 1013.7586 L2288.405 1001.8616 L2290.1929 989.9315 L2291.772 977.9719 L2293.1414 965.9865 L2294.3008 953.979 L2295.2498 941.9531 L2295.9883 929.9124 L2296.5161 917.8605 L2296.8328 905.8013 L2296.9382 893.7385"
         style="fill:none; fill-rule:evenodd;"
         id="path49" />
    </g>
    <g
       style="stroke-linecap:butt; fill:rgb(0,114,189); text-rendering:geometricPrecision; image-rendering:optimizeQuality; color-rendering:optimizeQuality; stroke-linejoin:bevel; stroke-dasharray:16,16; stroke:rgb(0,114,189); color-interpolation:linearRGB; stroke-width:4; stroke-miterlimit:1;"
       transform="translate(2135.6802,450.6854)"
       id="g56">
      <path
         style="stroke:none;"
         d="M0 -10 C5.5228 -10 10 -5.5228 10 0 L10 0 C10 5.5228 5.5228 10 -0 10 C-5.5228 10 -10 5.5228 -10 -0 C-10 -5.5228 -5.5228 -10 0 -10 ZM0 -11.3333 C-6.2592 -11.3333 -11.3333 -6.2592 -11.3333 -0 C-11.3333 6.2592 -6.2592 11.3333 -0 11.3333 C6.2592 11.3333 11.3333 6.2592 11.3333 0 L11.3333 0 C11.3333 -6.2592 6.2592 -11.3333 0 -11.3333 Z"
         id="path55" />
    </g>
    <g
       transform="translate(2135.6802,450.6854)"
       style="fill:rgb(77,190,238); text-rendering:geometricPrecision; color-rendering:optimizeQuality; image-rendering:optimizeQuality; color-interpolation:linearRGB; stroke:rgb(77,190,238);"
       id="g55">
      <circle
         r="10.6667"
         style="stroke:none;"
         cx="0"
         cy="0"
         id="circle54" />
    </g>
    <g
       transform="translate(1607.6702,893.7385)"
       style="fill:rgb(77,190,238); text-rendering:geometricPrecision; color-rendering:optimizeQuality; image-rendering:optimizeQuality; color-interpolation:linearRGB; stroke:rgb(77,190,238);"
       id="g51">
      <circle
         r="10.6667"
         style="stroke:none;"
         cx="0"
         cy="0"
         id="circle50" />
    </g>
    <g
       style="stroke-linecap:butt; fill:rgb(0,114,189); text-rendering:geometricPrecision; image-rendering:optimizeQuality; color-rendering:optimizeQuality; stroke-linejoin:bevel; stroke-dasharray:16,16; stroke:rgb(0,114,189); color-interpolation:linearRGB; stroke-width:4; stroke-miterlimit:1;"
       transform="translate(1607.6702,893.7385)"
       id="g52">
      <path
         style="stroke:none;"
         d="M0 -10 C5.5228 -10 10 -5.5228 10 0 L10 0 C10 5.5228 5.5228 10 -0 10 C-5.5228 10 -10 5.5228 -10 -0 C-10 -5.5228 -5.5228 -10 0 -10 ZM0 -11.3333 C-6.2592 -11.3333 -11.3333 -6.2592 -11.3333 -0 C-11.3333 6.2592 -6.2592 11.3333 -0 11.3333 C6.2592 11.3333 11.3333 6.2592 11.3333 0 L11.3333 0 C11.3333 -6.2592 6.2592 -11.3333 0 -11.3333 Z"
         id="path51" />
    </g>
    <g
       transform="translate(2296.9382,893.7385)"
       style="fill:rgb(77,190,238); text-rendering:geometricPrecision; color-rendering:optimizeQuality; image-rendering:optimizeQuality; color-interpolation:linearRGB; stroke:rgb(77,190,238);"
       id="g53">
      <circle
         r="10.6667"
         style="stroke:none;"
         cx="0"
         cy="0"
         id="circle52" />
    </g>
    <g
       style="stroke-linecap:butt; fill:rgb(0,114,189); text-rendering:geometricPrecision; image-rendering:optimizeQuality; color-rendering:optimizeQuality; stroke-linejoin:bevel; stroke-dasharray:16,16; stroke:rgb(0,114,189); color-interpolation:linearRGB; stroke-width:4; stroke-miterlimit:1;"
       transform="translate(2296.9382,893.7385)"
       id="g54">
      <path
         style="stroke:none;"
         d="M0 -10 C5.5228 -10 10 -5.5228 10 0 L10 0 C10 5.5228 5.5228 10 -0 10 C-5.5228 10 -10 5.5228 -10 -0 C-10 -5.5228 -5.5228 -10 0 -10 ZM0 -11.3333 C-6.2592 -11.3333 -11.3333 -6.2592 -11.3333 -0 C-11.3333 6.2592 -6.2592 11.3333 -0 11.3333 C6.2592 11.3333 11.3333 6.2592 11.3333 0 L11.3333 0 C11.3333 -6.2592 6.2592 -11.3333 0 -11.3333 Z"
         id="path53" />
    </g>
    <g
       transform="translate(1727.3602,214.9418)"
       style="fill:rgb(77,190,238); text-rendering:geometricPrecision; color-rendering:optimizeQuality; image-rendering:optimizeQuality; color-interpolation:linearRGB; stroke:rgb(77,190,238);"
       id="g57">
      <circle
         r="10.6667"
         style="stroke:none;"
         cx="0"
         cy="0"
         id="circle56" />
    </g>
    <g
       style="stroke-linecap:butt; fill:rgb(0,114,189); text-rendering:geometricPrecision; image-rendering:optimizeQuality; color-rendering:optimizeQuality; stroke-linejoin:bevel; stroke-dasharray:16,16; stroke:rgb(0,114,189); color-interpolation:linearRGB; stroke-width:4; stroke-miterlimit:1;"
       transform="translate(1727.3602,214.9418)"
       id="g58">
      <path
         style="stroke:none;"
         d="M0 -10 C5.5228 -10 10 -5.5228 10 0 L10 0 C10 5.5228 5.5228 10 -0 10 C-5.5228 10 -10 5.5228 -10 -0 C-10 -5.5228 -5.5228 -10 0 -10 ZM0 -11.3333 C-6.2592 -11.3333 -11.3333 -6.2592 -11.3333 -0 C-11.3333 6.2592 -6.2592 11.3333 -0 11.3333 C6.2592 11.3333 11.3333 6.2592 11.3333 0 L11.3333 0 C11.3333 -6.2592 6.2592 -11.3333 0 -11.3333 Z"
         id="path57" />
    </g>
    <g
       transform="translate(1263.036,296.8147)"
       style="fill:rgb(77,190,238); text-rendering:geometricPrecision; color-rendering:optimizeQuality; image-rendering:optimizeQuality; color-interpolation:linearRGB; stroke:rgb(77,190,238);"
       id="g59">
      <circle
         r="10.6667"
         style="stroke:none;"
         cx="0"
         cy="0"
         id="circle58" />
    </g>
    <g
       style="stroke-linecap:butt; fill:rgb(0,114,189); text-rendering:geometricPrecision; image-rendering:optimizeQuality; color-rendering:optimizeQuality; stroke-linejoin:bevel; stroke-dasharray:16,16; stroke:rgb(0,114,189); color-interpolation:linearRGB; stroke-width:4; stroke-miterlimit:1;"
       transform="translate(1263.036,296.8147)"
       id="g60">
      <path
         style="stroke:none;"
         d="M0 -10 C5.5228 -10 10 -5.5228 10 0 L10 0 C10 5.5228 5.5228 10 -0 10 C-5.5228 10 -10 5.5228 -10 -0 C-10 -5.5228 -5.5228 -10 0 -10 ZM0 -11.3333 C-6.2592 -11.3333 -11.3333 -6.2592 -11.3333 -0 C-11.3333 6.2592 -6.2592 11.3333 -0 11.3333 C6.2592 11.3333 11.3333 6.2592 11.3333 0 L11.3333 0 C11.3333 -6.2592 6.2592 -11.3333 0 -11.3333 Z"
         id="path59" />
    </g>
    <g
       transform="translate(959.9699,657.9949)"
       style="fill:rgb(77,190,238); text-rendering:geometricPrecision; color-rendering:optimizeQuality; image-rendering:optimizeQuality; color-interpolation:linearRGB; stroke:rgb(77,190,238);"
       id="g61">
      <circle
         r="10.6667"
         style="stroke:none;"
         cx="0"
         cy="0"
         id="circle60" />
    </g>
    <g
       style="stroke-linecap:butt; fill:rgb(0,114,189); text-rendering:geometricPrecision; image-rendering:optimizeQuality; color-rendering:optimizeQuality; stroke-linejoin:bevel; stroke-dasharray:16,16; stroke:rgb(0,114,189); color-interpolation:linearRGB; stroke-width:4; stroke-miterlimit:1;"
       transform="translate(959.9699,657.9949)"
       id="g62">
      <path
         style="stroke:none;"
         d="M0 -10 C5.5228 -10 10 -5.5228 10 0 L10 0 C10 5.5228 5.5228 10 -0 10 C-5.5228 10 -10 5.5228 -10 -0 C-10 -5.5228 -5.5228 -10 0 -10 ZM0 -11.3333 C-6.2592 -11.3333 -11.3333 -6.2592 -11.3333 -0 C-11.3333 6.2592 -6.2592 11.3333 -0 11.3333 C6.2592 11.3333 11.3333 6.2592 11.3333 0 L11.3333 0 C11.3333 -6.2592 6.2592 -11.3333 0 -11.3333 Z"
         id="path61" />
    </g>
    <g
       transform="translate(959.9699,1129.4821)"
       style="fill:rgb(77,190,238); text-rendering:geometricPrecision; color-rendering:optimizeQuality; image-rendering:optimizeQuality; color-interpolation:linearRGB; stroke:rgb(77,190,238);"
       id="g63">
      <circle
         r="10.6667"
         style="stroke:none;"
         cx="0"
         cy="0"
         id="circle62" />
    </g>
    <g
       style="stroke-linecap:butt; fill:rgb(0,114,189); text-rendering:geometricPrecision; image-rendering:optimizeQuality; color-rendering:optimizeQuality; stroke-linejoin:bevel; stroke-dasharray:16,16; stroke:rgb(0,114,189); color-interpolation:linearRGB; stroke-width:4; stroke-miterlimit:1;"
       transform="translate(959.9699,1129.4821)"
       id="g64">
      <path
         style="stroke:none;"
         d="M0 -10 C5.5228 -10 10 -5.5228 10 0 L10 0 C10 5.5228 5.5228 10 -0 10 C-5.5228 10 -10 5.5228 -10 -0 C-10 -5.5228 -5.5228 -10 0 -10 ZM0 -11.3333 C-6.2592 -11.3333 -11.3333 -6.2592 -11.3333 -0 C-11.3333 6.2592 -6.2592 11.3333 -0 11.3333 C6.2592 11.3333 11.3333 6.2592 11.3333 0 L11.3333 0 C11.3333 -6.2592 6.2592 -11.3333 0 -11.3333 Z"
         id="path63" />
    </g>
    <g
       transform="translate(1263.036,1490.6621)"
       style="fill:rgb(77,190,238); text-rendering:geometricPrecision; color-rendering:optimizeQuality; image-rendering:optimizeQuality; color-interpolation:linearRGB; stroke:rgb(77,190,238);"
       id="g65">
      <circle
         r="10.6667"
         style="stroke:none;"
         cx="0"
         cy="0"
         id="circle64" />
    </g>
    <g
       style="stroke-linecap:butt; fill:rgb(0,114,189); text-rendering:geometricPrecision; image-rendering:optimizeQuality; color-rendering:optimizeQuality; stroke-linejoin:bevel; stroke-dasharray:16,16; stroke:rgb(0,114,189); color-interpolation:linearRGB; stroke-width:4; stroke-miterlimit:1;"
       transform="translate(1263.036,1490.6621)"
       id="g66">
      <path
         style="stroke:none;"
         d="M0 -10 C5.5228 -10 10 -5.5228 10 0 L10 0 C10 5.5228 5.5228 10 -0 10 C-5.5228 10 -10 5.5228 -10 -0 C-10 -5.5228 -5.5228 -10 0 -10 ZM0 -11.3333 C-6.2592 -11.3333 -11.3333 -6.2592 -11.3333 -0 C-11.3333 6.2592 -6.2592 11.3333 -0 11.3333 C6.2592 11.3333 11.3333 6.2592 11.3333 0 L11.3333 0 C11.3333 -6.2592 6.2592 -11.3333 0 -11.3333 Z"
         id="path65" />
    </g>
    <g
       transform="translate(1727.3602,1572.535)"
       style="fill:rgb(77,190,238); text-rendering:geometricPrecision; color-rendering:optimizeQuality; image-rendering:optimizeQuality; color-interpolation:linearRGB; stroke:rgb(77,190,238);"
       id="g67">
      <circle
         r="10.6667"
         style="stroke:none;"
         cx="0"
         cy="0"
         id="circle66" />
    </g>
    <g
       style="stroke-linecap:butt; fill:rgb(0,114,189); text-rendering:geometricPrecision; image-rendering:optimizeQuality; color-rendering:optimizeQuality; stroke-linejoin:bevel; stroke-dasharray:16,16; stroke:rgb(0,114,189); color-interpolation:linearRGB; stroke-width:4; stroke-miterlimit:1;"
       transform="translate(1727.3602,1572.535)"
       id="g68">
      <path
         style="stroke:none;"
         d="M0 -10 C5.5228 -10 10 -5.5228 10 0 L10 0 C10 5.5228 5.5228 10 -0 10 C-5.5228 10 -10 5.5228 -10 -0 C-10 -5.5228 -5.5228 -10 0 -10 ZM0 -11.3333 C-6.2592 -11.3333 -11.3333 -6.2592 -11.3333 -0 C-11.3333 6.2592 -6.2592 11.3333 -0 11.3333 C6.2592 11.3333 11.3333 6.2592 11.3333 0 L11.3333 0 C11.3333 -6.2592 6.2592 -11.3333 0 -11.3333 Z"
         id="path67" />
    </g>
    <g
       transform="translate(2135.6802,1336.7915)"
       style="fill:rgb(77,190,238); text-rendering:geometricPrecision; color-rendering:optimizeQuality; image-rendering:optimizeQuality; color-interpolation:linearRGB; stroke:rgb(77,190,238);"
       id="g69">
      <circle
         r="10.6667"
         style="stroke:none;"
         cx="0"
         cy="0"
         id="circle68" />
    </g>
    <g
       style="stroke-linecap:butt; fill:rgb(0,114,189); text-rendering:geometricPrecision; image-rendering:optimizeQuality; color-rendering:optimizeQuality; stroke-linejoin:bevel; stroke-dasharray:16,16; stroke:rgb(0,114,189); color-interpolation:linearRGB; stroke-width:4; stroke-miterlimit:1;"
       transform="translate(2135.6802,1336.7915)"
       id="g70">
      <path
         style="stroke:none;"
         d="M0 -10 C5.5228 -10 10 -5.5228 10 0 L10 0 C10 5.5228 5.5228 10 -0 10 C-5.5228 10 -10 5.5228 -10 -0 C-10 -5.5228 -5.5228 -10 0 -10 ZM0 -11.3333 C-6.2592 -11.3333 -11.3333 -6.2592 -11.3333 -0 C-11.3333 6.2592 -6.2592 11.3333 -0 11.3333 C6.2592 11.3333 11.3333 6.2592 11.3333 0 L11.3333 0 C11.3333 -6.2592 6.2592 -11.3333 0 -11.3333 Z"
         id="path69" />
    </g>
    <g
       transform="translate(1607.6702,893.7385)"
       style="stroke-linecap:butt; fill:rgb(217,83,25); text-rendering:geometricPrecision; color-rendering:optimizeQuality; image-rendering:optimizeQuality; stroke:rgb(217,83,25); color-interpolation:linearRGB; stroke-width:1.3333;"
       id="g79">
      <path
         style="fill:none;"
         d="M0 -14 L0 14 M-14 0 L14 0 M-9.4281 -9.4281 L9.4281 9.4281 M-9.4281 9.4281 L9.4281 -9.4281"
         id="path70" />
      <path
         d="M0 -14 L0 14 M-14 0 L14 0 M-9.4281 -9.4281 L9.4281 9.4281 M-9.4281 9.4281 L9.4281 -9.4281"
         style="fill:none;"
         transform="translate(689.2681,0)"
         id="path71" />
      <path
         d="M0 -14 L0 14 M-14 0 L14 0 M-9.4281 -9.4281 L9.4281 9.4281 M-9.4281 9.4281 L9.4281 -9.4281"
         style="fill:none;"
         transform="translate(516.6912,-435.0945)"
         id="path72" />
      <path
         d="M0 -14 L0 14 M-14 0 L14 0 M-9.4281 -9.4281 L9.4281 9.4281 M-9.4281 9.4281 L9.4281 -9.4281"
         style="fill:none;"
         transform="translate(131.2655,-760.7385)"
         id="path73" />
      <path
         d="M0 -14 L0 14 M-14 0 L14 0 M-9.4281 -9.4281 L9.4281 9.4281 M-9.4281 9.4281 L9.4281 -9.4281"
         style="fill:none;"
         transform="translate(-359.1276,-628.3429)"
         id="path74" />
      <path
         d="M0 -14 L0 14 M-14 0 L14 0 M-9.4281 -9.4281 L9.4281 9.4281 M-9.4281 9.4281 L9.4281 -9.4281"
         style="fill:none;"
         transform="translate(-634.1799,-232.579)"
         id="path75" />
      <path
         d="M0 -14 L0 14 M-14 0 L14 0 M-9.4281 -9.4281 L9.4281 9.4281 M-9.4281 9.4281 L9.4281 -9.4281"
         style="fill:none;"
         transform="translate(-725.6085,263.5263)"
         id="path76" />
      <path
         d="M0 -14 L0 14 M-14 0 L14 0 M-9.4281 -9.4281 L9.4281 9.4281 M-9.4281 9.4281 L9.4281 -9.4281"
         style="fill:none;"
         transform="translate(-361.0999,627.2115)"
         id="path77" />
      <path
         d="M0 -14 L0 14 M-14 0 L14 0 M-9.4281 -9.4281 L9.4281 9.4281 M-9.4281 9.4281 L9.4281 -9.4281"
         style="fill:none;"
         transform="translate(119.2695,664.8697)"
         id="path78" />
      <path
         d="M0 -14 L0 14 M-14 0 L14 0 M-9.4281 -9.4281 L9.4281 9.4281 M-9.4281 9.4281 L9.4281 -9.4281"
         style="fill:none;"
         transform="translate(598.2419,487.9142)"
         id="path79" />
    </g>
    <g
       style="fill:white; text-rendering:optimizeSpeed; color-rendering:optimizeSpeed; image-rendering:optimizeSpeed; shape-rendering:crispEdges; stroke:white; color-interpolation:sRGB;"
       id="g80">
      <path
         style="stroke:none;"
         d="M2451 299 L2451 196 L2246 196 L2246 299 Z"
         id="path80" />
    </g>
    <g
       transform="translate(2340,215.5)"
       style="text-rendering:geometricPrecision; font-size:24px; color-interpolation:linearRGB; color-rendering:optimizeQuality; image-rendering:optimizeQuality;"
       id="g81">
      <path
         style="stroke:none;"
         d="M1.8906 9.5 L1.8906 -7.6875 L9.5 -7.6875 Q11.7969 -7.6875 12.9922 -7.2188 Q14.1875 -6.75 14.9062 -5.5781 Q15.625 -4.4062 15.625 -3 Q15.625 -1.1719 14.4375 0.0859 Q13.25 1.3438 10.7812 1.6875 Q11.6875 2.1094 12.1562 2.5312 Q13.1562 3.4531 14.0469 4.8281 L17.0312 9.5 L14.1719 9.5 L11.8906 5.9219 Q10.9062 4.375 10.2578 3.5547 Q9.6094 2.7344 9.1016 2.4062 Q8.5938 2.0781 8.0625 1.9531 Q7.6719 1.875 6.7969 1.875 L4.1562 1.875 L4.1562 9.5 L1.8906 9.5 ZM4.1562 -0.0938 L9.0469 -0.0938 Q10.6094 -0.0938 11.4844 -0.4219 Q12.3594 -0.75 12.8203 -1.4531 Q13.2812 -2.1562 13.2812 -3 Q13.2812 -4.2188 12.3984 -5 Q11.5156 -5.7812 9.5938 -5.7812 L4.1562 -5.7812 L4.1562 -0.0938 ZM30.0195 -0.6094 L18.6758 -0.6094 L18.6758 -2.5781 L30.0195 -2.5781 L30.0195 -0.6094 ZM30.0195 4.6094 L18.6758 4.6094 L18.6758 2.6406 L30.0195 2.6406 L30.0195 4.6094 ZM40.2852 9.5 L38.1758 9.5 L38.1758 -3.9375 Q37.4258 -3.2188 36.1836 -2.4922 Q34.9414 -1.7656 33.957 -1.4062 L33.957 -3.4375 Q35.7383 -4.2656 37.0586 -5.4531 Q38.3789 -6.6406 38.9258 -7.75 L40.2852 -7.75 L40.2852 9.5 ZM45.6953 1.0312 Q45.6953 -2.0156 46.3203 -3.875 Q46.9453 -5.7344 48.1797 -6.7422 Q49.4141 -7.75 51.2891 -7.75 Q52.6797 -7.75 53.7188 -7.1953 Q54.7578 -6.6406 55.4375 -5.5938 Q56.1172 -4.5469 56.5078 -3.0391 Q56.8984 -1.5312 56.8984 1.0312 Q56.8984 4.0469 56.2734 5.9062 Q55.6484 7.7656 54.4141 8.7812 Q53.1797 9.7969 51.2891 9.7969 Q48.8047 9.7969 47.3984 8.0156 Q45.6953 5.8594 45.6953 1.0312 ZM47.8672 1.0312 Q47.8672 5.25 48.8516 6.6562 Q49.8359 8.0625 51.2891 8.0625 Q52.7422 8.0625 53.7344 6.6562 Q54.7266 5.25 54.7266 1.0312 Q54.7266 -3.2188 53.7344 -4.6094 Q52.7422 -6 51.2734 -6 Q49.8203 -6 48.9453 -4.7812 Q47.8672 -3.2031 47.8672 1.0312 ZM59.043 1.0312 Q59.043 -2.0156 59.668 -3.875 Q60.293 -5.7344 61.5273 -6.7422 Q62.7617 -7.75 64.6367 -7.75 Q66.0273 -7.75 67.0664 -7.1953 Q68.1055 -6.6406 68.7852 -5.5938 Q69.4648 -4.5469 69.8555 -3.0391 Q70.2461 -1.5312 70.2461 1.0312 Q70.2461 4.0469 69.6211 5.9062 Q68.9961 7.7656 67.7617 8.7812 Q66.5273 9.7969 64.6367 9.7969 Q62.1523 9.7969 60.7461 8.0156 Q59.043 5.8594 59.043 1.0312 ZM61.2148 1.0312 Q61.2148 5.25 62.1992 6.6562 Q63.1836 8.0625 64.6367 8.0625 Q66.0898 8.0625 67.082 6.6562 Q68.0742 5.25 68.0742 1.0312 Q68.0742 -3.2188 67.082 -4.6094 Q66.0898 -6 64.6211 -6 Q63.168 -6 62.293 -4.7812 Q61.2148 -3.2031 61.2148 1.0312 ZM85.9336 -2.2188 Q86.0273 -3.9062 86.0273 -4.7031 Q86.0273 -5.5 85.9336 -7.0938 L87.2461 -6.3438 L92.9648 -6.3438 L93.5273 -7.1875 L94.9336 -6.1562 L94.2773 -5.5938 Q94.2773 -3.7188 94.3711 -2.7812 L93.0586 -2.3125 L93.0586 -3.1562 L87.2461 -3.1562 L87.2461 -2.6875 L85.9336 -2.2188 ZM84.9023 -1.8438 L86.2148 -1.1875 L93.7148 -1.1875 L94.3711 -1.9375 L95.7773 -0.9062 L95.0273 -0.3438 Q95.0273 3.125 95.1211 4.3438 L93.8086 5 L93.8086 -0.625 L86.2148 -0.625 L86.2148 4.625 L84.9023 5.2812 Q84.9961 3.2188 84.9961 1.5781 Q84.9961 -0.0625 84.9023 -1.8438 ZM89.4961 0.3125 L91.3711 1.3438 Q90.8086 1.8125 90.3398 3.875 Q89.7773 5.9375 88.2305 7.1562 Q86.6836 8.375 83.9648 9.2188 L83.7773 8.8438 Q87.3398 7.4375 88.3711 5.375 Q89.4023 3.3125 89.4961 0.3125 ZM90.9961 4.7188 Q94.3711 5.6562 95.3086 6.2656 Q96.2461 6.875 96.0117 7.8125 Q95.7773 8.75 95.5898 8.75 Q95.3086 8.75 94.9336 8.1875 Q94.0898 7.1562 90.8086 5 L90.9961 4.7188 ZM87.2461 -5.7812 L87.2461 -3.7188 L93.0586 -3.7188 L93.0586 -5.7812 L87.2461 -5.7812 ZM80.9648 11.75 Q81.0586 9.6875 81.0586 8.4688 L81.0586 -6.25 Q81.0586 -7.375 80.9648 -9.4375 L82.3711 -8.6875 L97.5586 -8.6875 L98.3086 -9.625 L99.8086 -8.4062 L98.9648 -7.75 L98.9648 8.1875 Q98.9648 9.3125 99.0586 11 L97.6523 11.6562 L97.6523 9.9688 L82.3711 9.9688 L82.3711 11.0938 L80.9648 11.75 ZM82.3711 -8.125 L82.3711 9.4062 L97.6523 9.4062 L97.6523 -8.125 L82.3711 -8.125 Z"
         id="path81" />
    </g>
    <g
       style="stroke-linecap:butt; fill:gray; text-rendering:geometricPrecision; image-rendering:optimizeQuality; color-rendering:optimizeQuality; stroke-linejoin:bevel; stroke-dasharray:16,16; stroke:gray; color-interpolation:linearRGB; stroke-width:4; stroke-miterlimit:1;"
       id="g82">
      <line
         y2="215.5"
         style="fill:none;"
         x1="2254"
         x2="2334"
         y1="215.5"
         id="line81" />
    </g>
    <g
       transform="translate(2340,247.5)"
       style="text-rendering:geometricPrecision; font-size:24px; color-interpolation:linearRGB; color-rendering:optimizeQuality; image-rendering:optimizeQuality;"
       id="g83">
      <path
         style="stroke:none;"
         d="M5.8125 -0.7188 L5.8125 1.25 L10.2188 1.25 L10.2188 -0.7188 L5.8125 -0.7188 ZM5.8125 1.8125 L5.8125 3.9688 L10.2188 3.9688 L10.2188 1.8125 L5.8125 1.8125 ZM5.8125 4.5312 L5.8125 7.5312 L10.2188 6.7812 L10.2188 4.5312 L5.8125 4.5312 ZM14.25 1.5312 Q14.625 2.8438 15.2812 4.1562 Q15.9375 5.4688 16.6875 6.3125 Q17.4375 5.1875 18.0469 3.9688 Q18.6562 2.75 19.125 1.5312 L14.25 1.5312 ZM1.2188 -1.2812 L19.125 -1.2812 L20.625 -2.7812 L22.6875 -0.7188 L11.4375 -0.7188 L11.4375 6.5 L14.1562 5.9375 L14.25 6.3125 L11.4375 7.1562 L11.4375 11.1875 L10.2188 11.9375 L10.2188 7.5312 Q4.9688 8.8438 3.8438 9.2656 Q2.7188 9.6875 2.5312 10.0625 L1.4062 8.2812 Q2.7188 8.0938 4.5 7.8125 L4.5 -0.7188 L3.1875 -0.7188 L1.9688 -0.5312 L1.2188 -1.2812 ZM11.8125 0.9688 L19.0312 0.9688 L19.7812 0.0312 L21.2812 1.3438 L20.4375 1.8125 Q19.0312 5 17.4375 7.1562 Q18.9375 8.5625 20.0625 9.125 Q21.1875 9.6875 22.7812 9.7812 L22.7812 10.1562 Q21.2812 10.3438 20.9062 11.2812 Q19.875 10.8125 18.8438 10.0156 Q17.8125 9.2188 16.6875 8 Q14.8125 9.875 11.7188 11.6562 L11.4375 11.375 Q14.1562 9.5 16.0312 7.25 Q15.1875 5.9375 14.6719 4.5781 Q14.1562 3.2188 13.7812 1.5312 L12.5625 1.7188 L11.8125 0.9688 ZM7.125 -8.5 L7.125 -6.4375 L17.25 -6.4375 L17.25 -8.5 L7.125 -8.5 ZM7.125 -5.875 L7.125 -3.8125 L17.25 -3.8125 L17.25 -5.875 L7.125 -5.875 ZM5.7188 -9.8125 L7.125 -9.0625 L17.0625 -9.0625 L17.7188 -10.0938 L19.3125 -8.9688 L18.5625 -8.3125 Q18.5625 -3.7188 18.6562 -2.7812 L17.25 -2.125 L17.25 -3.25 L7.125 -3.25 L7.125 -2.5 L5.7188 -2.0312 Q5.8125 -3.8125 5.8125 -5.9219 Q5.8125 -8.0312 5.7188 -9.8125 ZM43.5 -5.5 Q42.2812 -2.9688 40.4062 -0.4375 Q43.5 2.2812 46.9688 2.4688 L46.9688 2.8438 Q45.5625 2.9375 45.0938 4.0625 Q41.9062 2.6562 39.5625 0.3125 Q36.2812 3.2188 32.5312 4.5312 L32.3438 4.25 Q36 2.375 38.8125 -0.4375 Q37.4062 -2.5938 36.6562 -5.125 Q35.1562 -2.5938 33.4688 -0.8125 L33.1875 -1 Q34.875 -3.3438 35.8125 -5.5938 Q36.75 -7.8438 37.2188 -10 L39.2812 -8.875 L38.5312 -8.5 Q37.7812 -7.1875 37.4062 -6.4375 L42.0938 -6.4375 L42.8438 -7.375 L44.3438 -6.0625 L43.5 -5.5 ZM37.2188 2.75 Q40.7812 3.2188 41.2031 3.8281 Q41.625 4.4375 41.625 5 Q41.625 5.375 41.5312 5.7031 Q41.4375 6.0312 41.3438 6.0312 Q41.0625 6.0312 40.5938 5.4688 Q39.75 4.625 37.125 3.0312 L37.2188 2.75 ZM35.625 6.6875 Q40.3125 7.7188 41.4375 8.2344 Q42.5625 8.75 42.7031 9.2656 Q42.8438 9.7812 42.8438 10.1562 Q42.8438 10.5312 42.7969 10.8125 Q42.75 11.0938 42.6562 11.0938 Q42.2812 11.0938 41.4375 10.25 Q40.2188 9.0312 35.5312 6.9688 L35.625 6.6875 ZM37.125 -5.875 L36.9375 -5.5 Q38.0625 -2.7812 39.5625 -1.1875 Q41.3438 -3.5312 42.1875 -5.875 L37.125 -5.875 ZM26.8125 -2.3125 L31.0312 -2.5 Q31.875 -3.9062 32.7188 -5.875 L34.3125 -4.6562 Q33.2812 -3.9062 32.0625 -2.125 Q30.8438 -0.3438 27.75 3.2188 Q30 2.9375 33.75 2.2812 L33.8438 2.5625 Q32.1562 3.0312 30.2812 3.6406 Q28.4062 4.25 27.0938 5.2812 L25.9688 3.3125 Q26.7188 3.2188 27.8906 1.8594 Q29.0625 0.5 30.75 -1.9375 Q29.25 -1.75 28.2188 -1.4688 Q27.1875 -1.1875 26.4375 -0.625 L25.3125 -2.5938 Q26.1562 -2.5938 27.6562 -4.8906 Q29.1562 -7.1875 30.0938 -10 L31.875 -8.7812 Q30.75 -7.9375 29.8125 -6.5312 Q28.875 -5.125 26.8125 -2.3125 ZM26.7188 10.5312 L25.5 8.75 Q27.75 8.1875 29.1094 7.7656 Q30.4688 7.3438 33.8438 6.2188 L33.9375 6.5 Q32.4375 7.25 29.8125 8.4688 Q27.0938 9.7812 26.7188 10.5312 ZM52.6875 11.75 Q52.7812 8.9375 52.7812 -2.125 Q50.8125 1.1562 49.2188 2.8438 L48.9375 2.6562 Q50.7188 -0.1562 52.1719 -3.4375 Q53.625 -6.7188 54.375 -10.0938 L56.5312 -8.9688 L55.6875 -8.5 Q54.1875 -5.125 53.5312 -3.625 L54.75 -2.7812 L54 -2.2188 Q54 9.0312 54.0938 11 L52.6875 11.75 ZM60.375 -9.7188 L60.6562 -9.9062 Q63.375 -7.8438 63.4219 -6.9062 Q63.4688 -5.9688 63 -5.5938 Q62.5312 -5.2188 62.4375 -5.2188 Q61.9688 -5.2188 61.875 -6.25 Q61.5938 -7.6562 60.375 -9.7188 ZM55.5938 -4.4688 L66.9375 -4.4688 L68.25 -5.7812 L70.125 -3.9062 L58.5938 -3.9062 Q57.4688 -3.9062 56.4375 -3.625 L55.5938 -4.4688 ZM57.75 -1.75 L58.0312 -1.9375 Q60.375 1.8125 60.75 3.0781 Q61.125 4.3438 61.125 5 Q61.125 5.9375 60.6094 6.5 Q60.0938 7.0625 59.9062 7.0625 Q59.625 7.0625 59.625 6.4062 Q59.5312 5.2812 59.1562 3.2188 Q58.7812 1.1562 57.75 -1.75 ZM65.7188 -2.9688 L67.9688 -1.75 Q67.125 -1.2812 66.2812 1.5312 Q65.4375 4.3438 63.6562 9.5938 L67.875 9.5938 L69.1875 8.2812 L71.0625 10.1562 L58.125 10.1562 Q56.9062 10.1562 55.875 10.4375 L55.0312 9.5938 L63 9.5938 Q64.125 5.75 64.875 2.1406 Q65.625 -1.4688 65.7188 -2.9688 ZM77.25 -8.3125 L77.25 -5.2188 L80.9062 -5.2188 L80.9062 -8.3125 L77.25 -8.3125 ZM82.2188 -8.3125 L82.2188 -5.2188 L85.875 -5.2188 L85.875 -8.3125 L82.2188 -8.3125 ZM87.0938 -8.3125 L87.0938 -5.2188 L90.8438 -5.2188 L90.8438 -8.3125 L87.0938 -8.3125 ZM75.8438 -9.625 L77.25 -8.9688 L90.75 -8.9688 L91.4062 -9.8125 L92.8125 -8.7812 L92.25 -8.2188 Q92.25 -7 92.25 -6.1094 Q92.25 -5.2188 92.3438 -4.2812 L90.8438 -3.8125 L90.8438 -4.5625 L77.25 -4.5625 L77.25 -4.0938 L75.8438 -3.625 Q75.9375 -5.5 75.9375 -7.0938 Q75.9375 -8.6875 75.8438 -9.625 ZM79.125 8.1875 L79.125 10.25 L88.6875 10.25 L88.6875 8.1875 L79.125 8.1875 ZM74.5312 -2.5938 L82.875 -2.5938 Q82.9688 -3.625 82.9688 -4.5625 L85.125 -3.8125 L84.4688 -3.4375 L84.1875 -2.5938 L90.1875 -2.5938 L91.5 -3.625 L93.1875 -1.9375 L84.0938 -1.9375 Q83.8125 -1 83.5312 -0.1562 L88.5 -0.1562 L89.1562 -1.1875 L90.75 -0.0625 L90 0.7812 L90 10.25 L91.875 10.25 L93.2812 9.0312 L95.1562 10.9062 L76.2188 10.9062 Q74.8125 10.9062 73.6875 11.1875 L72.75 10.25 L77.7188 10.25 L77.7188 1.625 Q77.7188 0.5938 77.625 -0.8125 L79.125 -0.1562 L82.5 -0.1562 L82.7812 -1.9375 L77.9062 -1.9375 Q76.5938 -1.9375 75.4688 -1.6562 L74.5312 -2.5938 ZM79.125 0.5 L79.125 2.375 L88.6875 2.375 L88.6875 0.5 L79.125 0.5 ZM79.125 3.0312 L79.125 4.9062 L88.6875 4.9062 L88.6875 3.0312 L79.125 3.0312 ZM79.125 5.5625 L79.125 7.5312 L88.6875 7.5312 L88.6875 5.5625 L79.125 5.5625 Z"
         id="path82" />
    </g>
    <g
       transform="translate(2294,247.5)"
       style="fill:rgb(77,190,238); text-rendering:geometricPrecision; color-rendering:optimizeQuality; image-rendering:optimizeQuality; color-interpolation:linearRGB; stroke:rgb(77,190,238);"
       id="g84">
      <circle
         r="10.6667"
         style="stroke:none;"
         cx="0"
         cy="0"
         id="circle83" />
    </g>
    <g
       style="stroke-linecap:butt; fill:rgb(0,114,189); text-rendering:geometricPrecision; image-rendering:optimizeQuality; color-rendering:optimizeQuality; stroke-linejoin:bevel; stroke-dasharray:16,16; stroke:rgb(0,114,189); color-interpolation:linearRGB; stroke-width:4; stroke-miterlimit:1;"
       transform="translate(2294,247.5)"
       id="g85">
      <path
         style="stroke:none;"
         d="M0 -10 C5.5228 -10 10 -5.5228 10 0 L10 0 C10 5.5228 5.5228 10 -0 10 C-5.5228 10 -10 5.5228 -10 -0 C-10 -5.5228 -5.5228 -10 0 -10 ZM0 -11.3333 C-6.2592 -11.3333 -11.3333 -6.2592 -11.3333 -0 C-11.3333 6.2592 -6.2592 11.3333 -0 11.3333 C6.2592 11.3333 11.3333 6.2592 11.3333 0 L11.3333 0 C11.3333 -6.2592 6.2592 -11.3333 0 -11.3333 Z"
         id="path84" />
    </g>
    <g
       transform="translate(2340,279.5)"
       style="text-rendering:geometricPrecision; font-size:24px; color-interpolation:linearRGB; color-rendering:optimizeQuality; image-rendering:optimizeQuality;"
       id="g86">
      <path
         style="stroke:none;"
         d="M13.6875 5.2812 L13.6875 -0.4375 L13.5938 -2.3125 L14.9062 -1.5625 L19.5938 -1.5625 L19.5938 -6.25 L16.2188 -6.25 Q15 -6.25 13.9688 -5.9688 L13.125 -6.8125 L19.4062 -6.8125 L19.9688 -7.75 L21.4688 -6.8125 L20.8125 -6.1562 Q20.8125 -1.6562 20.9062 -0.3438 L19.5938 0.2188 L19.5938 -1 L14.9062 -1 L14.9062 4.8125 Q14.7188 6.5 16.125 6.4062 L20.0625 6.4062 Q21 6.3125 21.0938 4.625 Q21.1875 2.9375 21.1875 2 L21.6562 2 Q21.6562 3.6875 21.8438 4.7656 Q22.0312 5.8438 22.875 6.125 Q22.125 7.5312 20.3438 7.4375 L15.75 7.4375 Q13.5938 7.5312 13.6875 5.2812 ZM7.125 -5.9688 Q7.125 -8.5938 7.0312 -10.1875 L9.0938 -9.25 L8.3438 -8.5 L8.3438 -5.9688 L9.8438 -5.9688 L11.0625 -7.0938 L12.4688 -5.4062 L8.3438 -5.4062 L8.3438 -1.5625 L10.5 -1.5625 L11.625 -2.6875 L13.2188 -1 L7.9688 -1 L9.2812 -0.25 L8.5312 0.4062 L8.5312 3.5 L10.125 3.5 L11.3438 2.375 L12.8438 4.0625 L8.5312 4.0625 L8.5312 8.6562 Q11.1562 9.7812 15.3281 9.9219 Q19.5 10.0625 22.9688 9.6875 L22.9688 10.0625 Q21.2812 10.3438 21.1875 11.5625 Q18.4688 11.6562 14.9531 11.375 Q11.4375 11.0938 8.6719 9.9688 Q5.9062 8.8438 4.2188 6.2188 Q3.0938 9.7812 1.3125 11.8438 L1.0312 11.6562 Q2.7188 8.6562 3.1406 5.3281 Q3.5625 2 3.5625 0.875 L5.625 1.9062 Q5.1562 2.0938 4.9219 2.8906 Q4.6875 3.6875 4.4062 5.6562 Q5.9062 7.4375 7.3125 8.1875 L7.3125 -1 L4.0312 -1 Q3.2812 -1 2.25 -0.7188 L1.4062 -1.5625 L7.125 -1.5625 L7.125 -5.4062 L5.1562 -5.4062 Q4.4062 -5.4062 3.375 -5.125 L2.5312 -5.9688 L7.125 -5.9688 ZM37.5 2.75 L37.5 8.9375 L43.6875 8.9375 L43.6875 2.75 L37.5 2.75 ZM39.0938 -10.1875 L41.1562 -8.875 L40.3125 -8.4062 Q37.4062 -3.1562 36.2812 -1.8438 Q38.5312 -1.9375 44.4375 -2.125 Q43.5 -3.9062 41.9062 -5.5938 L42.1875 -5.875 Q45.9375 -3.3438 46.1719 -2.6875 Q46.4062 -2.0312 46.4062 -1.5625 Q46.4062 -0.9062 46.0312 -0.4375 Q45.6562 0.0312 45.4688 0.0312 Q45.2812 0.0312 45.1875 -0.3438 Q44.9062 -1 44.625 -1.6562 Q40.5938 -1.375 38.5781 -0.9531 Q36.5625 -0.5312 35.8125 0.125 L34.6875 -1.8438 Q35.7188 -2.2188 36.8906 -4.375 Q38.0625 -6.5312 39.0938 -10.1875 ZM45 3.125 Q45 9.6875 45.0938 10.7188 L43.6875 11.375 L43.6875 9.5 L37.5 9.5 L37.5 11 L36.0938 11.5625 Q36.1875 10.1562 36.1875 6.6406 Q36.1875 3.125 36.0938 1.3438 L37.5 2.1875 L43.5 2.1875 L44.1562 1.25 L45.75 2.4688 L45 3.125 ZM29.625 -3.7188 Q28.9688 -1.5625 27.375 3.875 Q29.0625 4.4375 30.4688 5 Q31.875 1.8125 32.7188 -3.7188 L29.625 -3.7188 ZM31.6875 -8.9688 L30.8438 -8.4062 Q30.4688 -7.1875 29.7188 -4.2812 L32.625 -4.2812 L33.2812 -5.125 L34.7812 -3.9062 L34.0312 -3.3438 Q33 2.2812 31.6875 5.4688 Q33.4688 6.4062 33.8438 6.875 Q34.2188 7.3438 34.2188 8.0938 Q34.2188 8.5625 34.125 8.9844 Q34.0312 9.4062 33.9375 9.4062 Q33.6562 9.4062 33.1875 8.6562 Q32.3438 7.4375 31.2188 6.5 Q28.875 9.875 25.4062 11.75 L25.2188 11.4688 Q28.5 8.8438 30.0938 5.9375 Q27.75 4.625 26.1562 4.0625 Q27.2812 0.3125 28.3125 -3.7188 L28.125 -3.7188 Q26.9062 -3.7188 25.875 -3.4375 L25.0312 -4.2812 L28.4062 -4.2812 Q29.3438 -8.3125 29.5312 -10 L31.6875 -8.9688 ZM52.6875 11.75 Q52.7812 8.9375 52.7812 -2.125 Q50.8125 1.1562 49.2188 2.8438 L48.9375 2.6562 Q50.7188 -0.1562 52.1719 -3.4375 Q53.625 -6.7188 54.375 -10.0938 L56.5312 -8.9688 L55.6875 -8.5 Q54.1875 -5.125 53.5312 -3.625 L54.75 -2.7812 L54 -2.2188 Q54 9.0312 54.0938 11 L52.6875 11.75 ZM60.375 -9.7188 L60.6562 -9.9062 Q63.375 -7.8438 63.4219 -6.9062 Q63.4688 -5.9688 63 -5.5938 Q62.5312 -5.2188 62.4375 -5.2188 Q61.9688 -5.2188 61.875 -6.25 Q61.5938 -7.6562 60.375 -9.7188 ZM55.5938 -4.4688 L66.9375 -4.4688 L68.25 -5.7812 L70.125 -3.9062 L58.5938 -3.9062 Q57.4688 -3.9062 56.4375 -3.625 L55.5938 -4.4688 ZM57.75 -1.75 L58.0312 -1.9375 Q60.375 1.8125 60.75 3.0781 Q61.125 4.3438 61.125 5 Q61.125 5.9375 60.6094 6.5 Q60.0938 7.0625 59.9062 7.0625 Q59.625 7.0625 59.625 6.4062 Q59.5312 5.2812 59.1562 3.2188 Q58.7812 1.1562 57.75 -1.75 ZM65.7188 -2.9688 L67.9688 -1.75 Q67.125 -1.2812 66.2812 1.5312 Q65.4375 4.3438 63.6562 9.5938 L67.875 9.5938 L69.1875 8.2812 L71.0625 10.1562 L58.125 10.1562 Q56.9062 10.1562 55.875 10.4375 L55.0312 9.5938 L63 9.5938 Q64.125 5.75 64.875 2.1406 Q65.625 -1.4688 65.7188 -2.9688 ZM77.25 -8.3125 L77.25 -5.2188 L80.9062 -5.2188 L80.9062 -8.3125 L77.25 -8.3125 ZM82.2188 -8.3125 L82.2188 -5.2188 L85.875 -5.2188 L85.875 -8.3125 L82.2188 -8.3125 ZM87.0938 -8.3125 L87.0938 -5.2188 L90.8438 -5.2188 L90.8438 -8.3125 L87.0938 -8.3125 ZM75.8438 -9.625 L77.25 -8.9688 L90.75 -8.9688 L91.4062 -9.8125 L92.8125 -8.7812 L92.25 -8.2188 Q92.25 -7 92.25 -6.1094 Q92.25 -5.2188 92.3438 -4.2812 L90.8438 -3.8125 L90.8438 -4.5625 L77.25 -4.5625 L77.25 -4.0938 L75.8438 -3.625 Q75.9375 -5.5 75.9375 -7.0938 Q75.9375 -8.6875 75.8438 -9.625 ZM79.125 8.1875 L79.125 10.25 L88.6875 10.25 L88.6875 8.1875 L79.125 8.1875 ZM74.5312 -2.5938 L82.875 -2.5938 Q82.9688 -3.625 82.9688 -4.5625 L85.125 -3.8125 L84.4688 -3.4375 L84.1875 -2.5938 L90.1875 -2.5938 L91.5 -3.625 L93.1875 -1.9375 L84.0938 -1.9375 Q83.8125 -1 83.5312 -0.1562 L88.5 -0.1562 L89.1562 -1.1875 L90.75 -0.0625 L90 0.7812 L90 10.25 L91.875 10.25 L93.2812 9.0312 L95.1562 10.9062 L76.2188 10.9062 Q74.8125 10.9062 73.6875 11.1875 L72.75 10.25 L77.7188 10.25 L77.7188 1.625 Q77.7188 0.5938 77.625 -0.8125 L79.125 -0.1562 L82.5 -0.1562 L82.7812 -1.9375 L77.9062 -1.9375 Q76.5938 -1.9375 75.4688 -1.6562 L74.5312 -2.5938 ZM79.125 0.5 L79.125 2.375 L88.6875 2.375 L88.6875 0.5 L79.125 0.5 ZM79.125 3.0312 L79.125 4.9062 L88.6875 4.9062 L88.6875 3.0312 L79.125 3.0312 ZM79.125 5.5625 L79.125 7.5312 L88.6875 7.5312 L88.6875 5.5625 L79.125 5.5625 Z"
         id="path85" />
    </g>
    <g
       transform="translate(2294,279.5)"
       style="stroke-linecap:butt; fill:rgb(217,83,25); text-rendering:geometricPrecision; color-rendering:optimizeQuality; image-rendering:optimizeQuality; stroke:rgb(217,83,25); color-interpolation:linearRGB; stroke-width:1.3333;"
       id="g87">
      <path
         style="fill:none;"
         d="M0 -12 L0 12 M-12 0 L12 0 M-8.4853 -8.4853 L8.4853 8.4853 M-8.4853 8.4853 L8.4853 -8.4853"
         id="path86" />
      <path
         d="M2246 299 L2246 196 L2451 196 L2451 299 Z"
         style="fill:none; fill-rule:evenodd; stroke:rgb(38,38,38);"
         transform="translate(-2294,-279.5)"
         id="path87" />
    </g>
    <path
       style="fill:none;stroke:#ff0000;stroke-width:0.378"
       d="m 1607.6702,893.7385 528.01,-443.0531 161.258,443.0531"
       id="path88" />
    <ellipse
       style="fill:none;stroke:#ff0000;stroke-width:0.381166"
       id="path91"
       cx="1953.6697"
       cy="770.09119"
       rx="366.1113"
       ry="368.33206" />
    <path
       style="fill:none;stroke:#ff0000;stroke-width:0.378"
       d="m 1607.6702,893.7385 h 689.2681"
       id="path92" />
    <path
       style="fill:none;stroke:#ff0000;stroke-width:0.378"
       d="m 1674.6244,837.55728 c 0,0 34.2013,15.06522 20.0946,56.19633"
       id="path93" />
    <text
       xml:space="preserve"
       style="font-size:16px;font-family:Arial;-inkscape-font-specification:Arial;text-align:start;writing-mode:lr-tb;direction:ltr;text-anchor:start;fill:#ff0000;stroke:#ff0000;stroke-width:0.378"
       x="1740.245"
       y="854.09222"
       id="text93"><tspan
         sodipodi:role="line"
         id="tspan93"
         x="1740.245"
         y="854.09222">1</tspan></text>
    <text
       xml:space="preserve"
       style="font-size:16px;font-family:Arial;-inkscape-font-specification:Arial;text-align:start;writing-mode:lr-tb;direction:ltr;text-anchor:start;fill:#ff0000;stroke:#ff0000;stroke-width:0.378"
       x="2223.7175"
       y="858"
       id="text94"><tspan
         sodipodi:role="line"
         x="2223.7175"
         y="858"
         id="tspan95">2</tspan></text>
    <path
       style="fill:#0000ff;stroke:#0000ff;stroke-width:0.378"
       d="M 1607.6702,893.7385 2134.8176,449.6594"
       id="path96" />
    <path
       style="fill:#0000ff;stroke:#0000ff;stroke-width:0.378"
       d="m 2124.3614,458.644 172.5769,435.0945"
       id="path97" />
    <path
       style="fill:none;stroke:#0000ff;stroke-width:0.378"
       d="m 2113.2786,467.80425 c 0,0 4.6617,9.52193 17.12,6.06062"
       id="path98" />
    <text
       xml:space="preserve"
       style="font-size:16px;font-family:Arial;-inkscape-font-specification:Arial;text-align:start;writing-mode:lr-tb;direction:ltr;text-anchor:start;fill:#0000ff;stroke:#0000ff;stroke-width:0.378"
       x="2113.0256"
       y="491.26346"
       id="text98"><tspan
         sodipodi:role="line"
         id="tspan98"
         x="2113.0256"
         y="491.26346"></tspan></text>
    <text
       xml:space="preserve"
       style="font-size:16px;font-family:Arial;-inkscape-font-specification:Arial;text-align:start;writing-mode:lr-tb;direction:ltr;text-anchor:start;fill:#0000ff;stroke:#0000ff;stroke-width:0.378"
       x="2032.6368"
       y="500.78531"
       id="text99"><tspan
         sodipodi:role="line"
         id="tspan99"
         x="2032.6368"
         y="500.78531">d</tspan></text>
  </g>
</svg>
