<?xml version="1.0" encoding="UTF-8" standalone="no"?>
<svg
   style="font-style:normal;font-weight:normal;font-size:12px;font-family:Dialog;color-interpolation:auto;fill:#000000;fill-opacity:1;stroke:#000000;stroke-width:1;stroke-linecap:square;stroke-linejoin:miter;stroke-miterlimit:10;stroke-dasharray:none;stroke-dashoffset:0;stroke-opacity:1;color-rendering:auto;image-rendering:auto;shape-rendering:auto;text-rendering:auto"
   width="1120"
   height="840"
   version="1.1"
   id="svg46"
   sodipodi:docname="2-1-1.svg"
   inkscape:export-filename="2-1-1.jpg"
   inkscape:export-xdpi="96"
   inkscape:export-ydpi="96"
   xmlns:inkscape="http://www.inkscape.org/namespaces/inkscape"
   xmlns:sodipodi="http://sodipodi.sourceforge.net/DTD/sodipodi-0.dtd"
   xmlns="http://www.w3.org/2000/svg"
   xmlns:svg="http://www.w3.org/2000/svg">
  <sodipodi:namedview
     id="namedview46"
     pagecolor="#ffffff"
     bordercolor="#000000"
     borderopacity="0.25"
     inkscape:showpageshadow="2"
     inkscape:pageopacity="0.0"
     inkscape:pagecheckerboard="0"
     inkscape:deskcolor="#d1d1d1">
    <inkscape:page
       x="0"
       y="0"
       width="1120"
       height="840"
       id="page2"
       margin="0"
       bleed="0" />
  </sodipodi:namedview>
  <!--Generated by the Batik Graphics2D SVG Generator-->
  <defs
     id="genericDefs" />
  <g
     style="color-interpolation:linearRGB;stroke-width:2.6667;stroke-linecap:butt;stroke-linejoin:round;color-rendering:optimizeQuality;image-rendering:optimizeQuality;text-rendering:geometricPrecision"
     id="g15">
    <path
       d="m 922.2893,405.5 -0.1706,-10.8062 -0.5116,-10.7955 -0.8523,-10.774 -1.1919,-10.7416 -1.5304,-10.6987 -1.8673,-10.6451 -2.2026,-10.5808 -2.5354,-10.506 -2.8658,-10.4207 -3.1934,-10.325 -3.5177,-10.2191 -3.8385,-10.103 -4.1556,-9.9767 -4.4684,-9.8406 -4.777,-9.6946 -5.0805,-9.539 -5.3792,-9.3738 -5.6723,-9.1994 -5.96,-9.0157 -6.2416,-8.823 -6.5171,-8.6217 -6.7859,-8.4116 -7.0482,-8.1931 -7.3032,-7.9666 -7.5511,-7.7321 -7.7914,-7.4898 -8.0241,-7.2402 -8.2485,-6.9832 -8.4649,-6.7194 -8.6728,-6.4488 -8.8721,-6.1717 -9.0624,-5.8887 -9.2438,-5.5996 -9.4161,-5.305 -9.5788,-5.0051 -9.732,-4.7002 -9.8755,-4.3906 -10.0092,-4.0767 -10.133,-3.7587 -10.2465,-3.437 L 673.3506,76.17 662.9077,73.3865 652.382,70.9341 641.7841,68.8152 631.1246,67.0319 620.4142,65.586 609.6635,64.4789 598.8831,63.7117 588.0839,63.2853 577.2767,63.2 l -10.8046,0.2559 -10.7911,0.5969 -10.7669,0.9372 -10.7319,1.2766 -10.6863,1.6148 -10.6299,1.9514 -10.5631,2.2859 -10.4857,2.6183 -10.3977,2.948 -10.2996,3.2748 -10.191,3.5982 -10.0723,3.9182 -9.9436,4.2342 -9.805,4.546 -9.6566,4.8533 -9.4986,5.1557 -9.3311,5.453 -9.1543,5.7448 -8.9684,6.0309 -8.7735,6.3111 -8.5699,6.5849 -8.3578,6.8521 -8.1373,7.1126 -7.9087,7.3659 -7.6722,7.6119 -7.4281,7.8503 -7.1766,8.0809 -6.9179,8.3035 -6.6523,8.5176 -6.3801,8.7234 -6.1016,8.9205 -5.8169,9.1087 -5.5265,9.2878 -5.2305,9.4576 -4.9293,9.618 -4.6233,9.7688 -4.3125,9.9098 -3.9976,10.0412 -3.6786,10.1622 -3.3559,10.2734 -3.03,10.3742 -2.701,10.4646 -2.3692,10.5447 -2.0352,10.6143 -1.6991,10.6732 -1.3614,10.7215 -1.0221,10.7591 -0.6821,10.7861 -0.3411,10.8022 v 10.8076 l 0.3411,10.8022 0.6821,10.7861 1.0221,10.7591 1.3614,10.7215 1.6991,10.6732 2.0352,10.6143 2.3692,10.5447 2.701,10.4646 3.03,10.3742 3.3559,10.2734 3.6786,10.1622 3.9976,10.0411 4.3125,9.9099 4.6233,9.7688 4.9293,9.6181 5.2305,9.4576 5.5265,9.2877 5.8169,9.1087 6.1016,8.9205 6.3801,8.7234 6.6523,8.5176 6.9179,8.3035 7.1766,8.0809 7.4281,7.8503 7.6722,7.6119 7.9087,7.3659 8.1373,7.1126 8.3578,6.8521 8.5699,6.5849 8.7735,6.3111 8.9684,6.0309 9.1543,5.7448 9.3311,5.453 9.4986,5.1557 9.6566,4.8533 9.805,4.546 9.9436,4.2342 10.0723,3.9182 10.191,3.5982 10.2996,3.2748 10.3977,2.948 10.4857,2.6183 10.5631,2.2859 10.6299,1.9513 10.6863,1.6148 10.7319,1.2767 10.7669,0.9373 10.7911,0.5968 10.8046,0.2559 10.8072,-0.0853 10.7992,-0.4264 10.7804,-0.7672 10.7507,-1.107 10.7104,-1.446 10.6595,-1.7833 10.5979,-2.1189 10.5257,-2.4524 10.4429,-2.7835 10.35,-3.1117 10.2465,-3.437 10.133,-3.7587 10.0092,-4.0767 9.8755,-4.3907 9.732,-4.7002 9.5788,-5.005 9.4161,-5.305 9.2438,-5.5996 9.0624,-5.8886 8.8721,-6.1719 8.6728,-6.4487 8.4649,-6.7193 8.2485,-6.9833 8.0241,-7.2401 7.7914,-7.4899 7.5511,-7.7321 7.3032,-7.9666 7.0482,-8.1931 6.7859,-8.4117 6.5171,-8.6215 6.2416,-8.8231 5.96,-9.0157 5.6723,-9.1994 5.3792,-9.3738 5.0805,-9.539 4.777,-9.6946 4.4684,-9.8406 4.1556,-9.9767 3.8385,-10.1029 3.5177,-10.2192 3.1934,-10.325 2.8658,-10.4207 2.5354,-10.506 2.2026,-10.5808 1.8673,-10.6451 1.5304,-10.6987 1.1919,-10.7416 0.8523,-10.774 0.5116,-10.7955 0.1706,-10.8062"
       style="fill:none;fill-rule:evenodd"
       id="path14" />
  </g>
  <g
     transform="translate(579.9787,405.5)"
     style="color-interpolation:linearRGB;fill:#ff0000;stroke:#ff0000;color-rendering:optimizeQuality;image-rendering:optimizeQuality;text-rendering:geometricPrecision"
     id="g16">
    <circle
       r="8"
       style="stroke:none"
       cx="0"
       cy="0"
       id="circle15" />
  </g>
  <g
     transform="translate(579.9787,405.5)"
     style="color-interpolation:linearRGB;fill:#ff0000;stroke:#ff0000;stroke-width:2.6667;stroke-linecap:butt;stroke-linejoin:round;color-rendering:optimizeQuality;image-rendering:optimizeQuality;text-rendering:geometricPrecision"
     id="g17">
    <path
       style="stroke:none"
       d="m 0,-7.3333 c 4.0501,0 7.3333,3.2832 7.3333,7.3333 V 0 C 7.3333,4.0501 4.0501,7.3333 0,7.3333 -4.0501,7.3333 -7.3333,4.0501 -7.3333,0 c 0,-4.0501 3.2832,-7.3333 7.3333,-7.3333 z m 0,-1.3334 c -4.7865,0 -8.6667,3.8802 -8.6667,8.6667 0,4.7865 3.8802,8.6667 8.6667,8.6667 C 4.7865,8.6667 8.6667,4.7865 8.6667,0 V 0 C 8.6667,-4.7865 4.7865,-8.6667 0,-8.6667 Z"
       id="path16" />
  </g>
  <g
     transform="translate(605.08569,433.7917)"
     style="font-size:32px;color-interpolation:linearRGB;color-rendering:optimizeQuality;image-rendering:optimizeQuality;text-rendering:geometricPrecision"
     id="g18">
    <text
       x="0"
       xml:space="preserve"
       y="-8"
       style="stroke:none"
       id="text17"> FY00</text>
  </g>
  <g
     transform="translate(922.2893,405.5)"
     style="color-interpolation:linearRGB;fill:#0000ff;stroke:#0000ff;color-rendering:optimizeQuality;image-rendering:optimizeQuality;text-rendering:geometricPrecision"
     id="g19">
    <circle
       r="8"
       style="stroke:none"
       cx="0"
       cy="0"
       id="circle18" />
  </g>
  <g
     transform="translate(922.2893,405.5)"
     style="color-interpolation:linearRGB;fill:#0000ff;stroke:#0000ff;stroke-width:2.6667;stroke-linecap:butt;stroke-linejoin:round;color-rendering:optimizeQuality;image-rendering:optimizeQuality;text-rendering:geometricPrecision"
     id="g20">
    <path
       style="stroke:none"
       d="m 0,-7.3333 c 4.0501,0 7.3333,3.2832 7.3333,7.3333 V 0 C 7.3333,4.0501 4.0501,7.3333 0,7.3333 -4.0501,7.3333 -7.3333,4.0501 -7.3333,0 c 0,-4.0501 3.2832,-7.3333 7.3333,-7.3333 z m 0,-1.3334 c -4.7865,0 -8.6667,3.8802 -8.6667,8.6667 0,4.7865 3.8802,8.6667 8.6667,8.6667 C 4.7865,8.6667 8.6667,4.7865 8.6667,0 V 0 C 8.6667,-4.7865 4.7865,-8.6667 0,-8.6667 Z"
       id="path19" />
  </g>
  <g
     transform="translate(994.04201,413.2917)"
     style="font-size:32px;color-interpolation:linearRGB;color-rendering:optimizeQuality;image-rendering:optimizeQuality;text-rendering:geometricPrecision"
     id="g21">
    <text
       x="-43"
       xml:space="preserve"
       y="12.5"
       style="stroke:none"
       id="text20"> FY01</text>
  </g>
  <g
     transform="translate(842.2039,185.4669)"
     style="color-interpolation:linearRGB;fill:#0000ff;stroke:#0000ff;color-rendering:optimizeQuality;image-rendering:optimizeQuality;text-rendering:geometricPrecision"
     id="g22">
    <circle
       r="8"
       style="stroke:none"
       cx="0"
       cy="0"
       id="circle21" />
  </g>
  <g
     transform="translate(842.2039,185.4669)"
     style="color-interpolation:linearRGB;fill:#0000ff;stroke:#0000ff;stroke-width:2.6667;stroke-linecap:butt;stroke-linejoin:round;color-rendering:optimizeQuality;image-rendering:optimizeQuality;text-rendering:geometricPrecision"
     id="g23">
    <path
       style="stroke:none"
       d="m 0,-7.3333 c 4.0501,0 7.3333,3.2832 7.3333,7.3333 V 0 C 7.3333,4.0501 4.0501,7.3333 0,7.3333 -4.0501,7.3333 -7.3333,4.0501 -7.3333,0 c 0,-4.0501 3.2832,-7.3333 7.3333,-7.3333 z m 0,-1.3334 c -4.7865,0 -8.6667,3.8802 -8.6667,8.6667 0,4.7865 3.8802,8.6667 8.6667,8.6667 C 4.7865,8.6667 8.6667,4.7865 8.6667,0 V 0 C 8.6667,-4.7865 4.7865,-8.6667 0,-8.6667 Z"
       id="path22" />
  </g>
  <g
     transform="translate(878.68498,157.41173)"
     style="font-size:32px;color-interpolation:linearRGB;color-rendering:optimizeQuality;image-rendering:optimizeQuality;text-rendering:geometricPrecision"
     id="g24">
    <text
       x="-43"
       xml:space="preserve"
       y="12.5"
       style="stroke:none"
       id="text23"> FY02</text>
  </g>
  <g
     transform="translate(639.4203,68.3898)"
     style="color-interpolation:linearRGB;fill:#0000ff;stroke:#0000ff;color-rendering:optimizeQuality;image-rendering:optimizeQuality;text-rendering:geometricPrecision"
     id="g25">
    <circle
       r="8"
       style="stroke:none"
       cx="0"
       cy="0"
       id="circle24" />
  </g>
  <g
     transform="translate(639.4203,68.3898)"
     style="color-interpolation:linearRGB;fill:#0000ff;stroke:#0000ff;stroke-width:2.6667;stroke-linecap:butt;stroke-linejoin:round;color-rendering:optimizeQuality;image-rendering:optimizeQuality;text-rendering:geometricPrecision"
     id="g26">
    <path
       style="stroke:none"
       d="m 0,-7.3333 c 4.0501,0 7.3333,3.2832 7.3333,7.3333 V 0 C 7.3333,4.0501 4.0501,7.3333 0,7.3333 -4.0501,7.3333 -7.3333,4.0501 -7.3333,0 c 0,-4.0501 3.2832,-7.3333 7.3333,-7.3333 z m 0,-1.3334 c -4.7865,0 -8.6667,3.8802 -8.6667,8.6667 0,4.7865 3.8802,8.6667 8.6667,8.6667 C 4.7865,8.6667 8.6667,4.7865 8.6667,0 V 0 C 8.6667,-4.7865 4.7865,-8.6667 0,-8.6667 Z"
       id="path25" />
  </g>
  <g
     transform="translate(645.3644,34.6788)"
     style="font-size:32px;color-interpolation:linearRGB;color-rendering:optimizeQuality;image-rendering:optimizeQuality;text-rendering:geometricPrecision"
     id="g27">
    <text
       x="-43"
       xml:space="preserve"
       y="12.5"
       style="stroke:none"
       id="text26"> FY03</text>
  </g>
  <g
     transform="translate(408.8233,109.0503)"
     style="color-interpolation:linearRGB;fill:#0000ff;stroke:#0000ff;color-rendering:optimizeQuality;image-rendering:optimizeQuality;text-rendering:geometricPrecision"
     id="g28">
    <circle
       r="8"
       style="stroke:none"
       cx="0"
       cy="0"
       id="circle27" />
  </g>
  <g
     transform="translate(408.8233,109.0503)"
     style="color-interpolation:linearRGB;fill:#0000ff;stroke:#0000ff;stroke-width:2.6667;stroke-linecap:butt;stroke-linejoin:round;color-rendering:optimizeQuality;image-rendering:optimizeQuality;text-rendering:geometricPrecision"
     id="g29">
    <path
       style="stroke:none"
       d="m 0,-7.3333 c 4.0501,0 7.3333,3.2832 7.3333,7.3333 V 0 C 7.3333,4.0501 4.0501,7.3333 0,7.3333 -4.0501,7.3333 -7.3333,4.0501 -7.3333,0 c 0,-4.0501 3.2832,-7.3333 7.3333,-7.3333 z m 0,-1.3334 c -4.7865,0 -8.6667,3.8802 -8.6667,8.6667 0,4.7865 3.8802,8.6667 8.6667,8.6667 C 4.7865,8.6667 8.6667,4.7865 8.6667,0 V 0 C 8.6667,-4.7865 4.7865,-8.6667 0,-8.6667 Z"
       id="path28" />
  </g>
  <g
     transform="translate(366.28993,76.1815)"
     style="font-size:32px;color-interpolation:linearRGB;color-rendering:optimizeQuality;image-rendering:optimizeQuality;text-rendering:geometricPrecision"
     id="g30">
    <text
       x="-43"
       xml:space="preserve"
       y="12.5"
       style="stroke:none"
       id="text29"> FY04</text>
  </g>
  <g
     transform="translate(258.3119,288.4229)"
     style="color-interpolation:linearRGB;fill:#0000ff;stroke:#0000ff;color-rendering:optimizeQuality;image-rendering:optimizeQuality;text-rendering:geometricPrecision"
     id="g31">
    <circle
       r="8"
       style="stroke:none"
       cx="0"
       cy="0"
       id="circle30" />
  </g>
  <g
     transform="translate(258.3119,288.4229)"
     style="color-interpolation:linearRGB;fill:#0000ff;stroke:#0000ff;stroke-width:2.6667;stroke-linecap:butt;stroke-linejoin:round;color-rendering:optimizeQuality;image-rendering:optimizeQuality;text-rendering:geometricPrecision"
     id="g32">
    <path
       style="stroke:none"
       d="m 0,-7.3333 c 4.0501,0 7.3333,3.2832 7.3333,7.3333 V 0 C 7.3333,4.0501 4.0501,7.3333 0,7.3333 -4.0501,7.3333 -7.3333,4.0501 -7.3333,0 c 0,-4.0501 3.2832,-7.3333 7.3333,-7.3333 z m 0,-1.3334 c -4.7865,0 -8.6667,3.8802 -8.6667,8.6667 0,4.7865 3.8802,8.6667 8.6667,8.6667 C 4.7865,8.6667 8.6667,4.7865 8.6667,0 V 0 C 8.6667,-4.7865 4.7865,-8.6667 0,-8.6667 Z"
       id="path31" />
  </g>
  <g
     transform="translate(176.51984,266.77183)"
     style="font-size:32px;color-interpolation:linearRGB;color-rendering:optimizeQuality;image-rendering:optimizeQuality;text-rendering:geometricPrecision"
     id="g33">
    <text
       x="-43"
       xml:space="preserve"
       y="12.5"
       style="stroke:none"
       id="text32"> FY05</text>
  </g>
  <g
     transform="translate(258.3119,522.5771)"
     style="color-interpolation:linearRGB;fill:#0000ff;stroke:#0000ff;color-rendering:optimizeQuality;image-rendering:optimizeQuality;text-rendering:geometricPrecision"
     id="g34">
    <circle
       r="8"
       style="stroke:none"
       cx="0"
       cy="0"
       id="circle33" />
  </g>
  <g
     transform="translate(258.3119,522.5771)"
     style="color-interpolation:linearRGB;fill:#0000ff;stroke:#0000ff;stroke-width:2.6667;stroke-linecap:butt;stroke-linejoin:round;color-rendering:optimizeQuality;image-rendering:optimizeQuality;text-rendering:geometricPrecision"
     id="g35">
    <path
       style="stroke:none"
       d="m 0,-7.3333 c 4.0501,0 7.3333,3.2832 7.3333,7.3333 V 0 C 7.3333,4.0501 4.0501,7.3333 0,7.3333 -4.0501,7.3333 -7.3333,4.0501 -7.3333,0 c 0,-4.0501 3.2832,-7.3333 7.3333,-7.3333 z m 0,-1.3334 c -4.7865,0 -8.6667,3.8802 -8.6667,8.6667 0,4.7865 3.8802,8.6667 8.6667,8.6667 C 4.7865,8.6667 8.6667,4.7865 8.6667,0 V 0 C 8.6667,-4.7865 4.7865,-8.6667 0,-8.6667 Z"
       id="path34" />
  </g>
  <g
     transform="translate(192.25471,542.47817)"
     style="font-size:32px;color-interpolation:linearRGB;color-rendering:optimizeQuality;image-rendering:optimizeQuality;text-rendering:geometricPrecision"
     id="g36">
    <text
       x="-43"
       xml:space="preserve"
       y="12.5"
       style="stroke:none"
       id="text35"> FY06</text>
  </g>
  <g
     transform="translate(408.8233,701.9497)"
     style="color-interpolation:linearRGB;fill:#0000ff;stroke:#0000ff;color-rendering:optimizeQuality;image-rendering:optimizeQuality;text-rendering:geometricPrecision"
     id="g37">
    <circle
       r="8"
       style="stroke:none"
       cx="0"
       cy="0"
       id="circle36" />
  </g>
  <g
     transform="translate(408.8233,701.9497)"
     style="color-interpolation:linearRGB;fill:#0000ff;stroke:#0000ff;stroke-width:2.6667;stroke-linecap:butt;stroke-linejoin:round;color-rendering:optimizeQuality;image-rendering:optimizeQuality;text-rendering:geometricPrecision"
     id="g38">
    <path
       style="stroke:none"
       d="m 0,-7.3333 c 4.0501,0 7.3333,3.2832 7.3333,7.3333 V 0 C 7.3333,4.0501 4.0501,7.3333 0,7.3333 -4.0501,7.3333 -7.3333,4.0501 -7.3333,0 c 0,-4.0501 3.2832,-7.3333 7.3333,-7.3333 z m 0,-1.3334 c -4.7865,0 -8.6667,3.8802 -8.6667,8.6667 0,4.7865 3.8802,8.6667 8.6667,8.6667 C 4.7865,8.6667 8.6667,4.7865 8.6667,0 V 0 C 8.6667,-4.7865 4.7865,-8.6667 0,-8.6667 Z"
       id="path37" />
  </g>
  <g
     transform="translate(380.81443,733.0685)"
     style="font-size:32px;color-interpolation:linearRGB;color-rendering:optimizeQuality;image-rendering:optimizeQuality;text-rendering:geometricPrecision"
     id="g39">
    <text
       x="-43"
       xml:space="preserve"
       y="12.5"
       style="stroke:none"
       id="text38"> FY07</text>
  </g>
  <g
     transform="translate(639.4203,742.6102)"
     style="color-interpolation:linearRGB;fill:#0000ff;stroke:#0000ff;color-rendering:optimizeQuality;image-rendering:optimizeQuality;text-rendering:geometricPrecision"
     id="g40">
    <circle
       r="8"
       style="stroke:none"
       cx="0"
       cy="0"
       id="circle39" />
  </g>
  <g
     transform="translate(639.4203,742.6102)"
     style="color-interpolation:linearRGB;fill:#0000ff;stroke:#0000ff;stroke-width:2.6667;stroke-linecap:butt;stroke-linejoin:round;color-rendering:optimizeQuality;image-rendering:optimizeQuality;text-rendering:geometricPrecision"
     id="g41">
    <path
       style="stroke:none"
       d="m 0,-7.3333 c 4.0501,0 7.3333,3.2832 7.3333,7.3333 V 0 C 7.3333,4.0501 4.0501,7.3333 0,7.3333 -4.0501,7.3333 -7.3333,4.0501 -7.3333,0 c 0,-4.0501 3.2832,-7.3333 7.3333,-7.3333 z m 0,-1.3334 c -4.7865,0 -8.6667,3.8802 -8.6667,8.6667 0,4.7865 3.8802,8.6667 8.6667,8.6667 C 4.7865,8.6667 8.6667,4.7865 8.6667,0 V 0 C 8.6667,-4.7865 4.7865,-8.6667 0,-8.6667 Z"
       id="path40" />
  </g>
  <g
     transform="translate(645.3644,776.3212)"
     style="font-size:32px;color-interpolation:linearRGB;color-rendering:optimizeQuality;image-rendering:optimizeQuality;text-rendering:geometricPrecision"
     id="g42">
    <text
       x="-43"
       xml:space="preserve"
       y="12.5"
       style="stroke:none"
       id="text41"> FY08</text>
  </g>
  <g
     transform="translate(842.2039,625.5331)"
     style="color-interpolation:linearRGB;fill:#0000ff;stroke:#0000ff;color-rendering:optimizeQuality;image-rendering:optimizeQuality;text-rendering:geometricPrecision"
     id="g43">
    <circle
       r="8"
       style="stroke:none"
       cx="0"
       cy="0"
       id="circle42" />
  </g>
  <g
     transform="translate(842.2039,625.5331)"
     style="color-interpolation:linearRGB;fill:#0000ff;stroke:#0000ff;stroke-width:2.6667;stroke-linecap:butt;stroke-linejoin:round;color-rendering:optimizeQuality;image-rendering:optimizeQuality;text-rendering:geometricPrecision"
     id="g44">
    <path
       style="stroke:none"
       d="m 0,-7.3333 c 4.0501,0 7.3333,3.2832 7.3333,7.3333 V 0 C 7.3333,4.0501 4.0501,7.3333 0,7.3333 -4.0501,7.3333 -7.3333,4.0501 -7.3333,0 c 0,-4.0501 3.2832,-7.3333 7.3333,-7.3333 z m 0,-1.3334 c -4.7865,0 -8.6667,3.8802 -8.6667,8.6667 0,4.7865 3.8802,8.6667 8.6667,8.6667 C 4.7865,8.6667 8.6667,4.7865 8.6667,0 V 0 C 8.6667,-4.7865 4.7865,-8.6667 0,-8.6667 Z"
       id="path43" />
  </g>
  <g
     transform="translate(878.71623,656.00902)"
     style="font-size:32px;color-interpolation:linearRGB;color-rendering:optimizeQuality;image-rendering:optimizeQuality;text-rendering:geometricPrecision"
     id="g45">
    <text
       x="-43"
       xml:space="preserve"
       y="12.5"
       style="stroke:none"
       id="text44"> FY09</text>
  </g>
  <path
     style="fill:none;stroke:#0000ff;stroke-width:0.378"
     d="M 579.9787,405.5 258.1471,289.0018 922.2893,405.5 408.8233,109.0503 Z"
     id="path46" />
  <path
     style="fill:none;stroke:#0000ff;stroke-width:0.378"
     d="M 579.9787,405.5 639.4203,68.3898 922.2893,405.5 842.2039,185.4669 Z"
     id="path47" />
  <path
     style="fill:none;stroke:#0000ff;stroke-width:0.378"
     d="m 364.29366,307.62113 c 0,0 9.58077,11.35604 -5.54172,17.79811"
     id="path48" />
  <path
     style="fill:none;stroke:#0000ff;stroke-width:0.378"
     d="m 448.20919,131.78975 c 0,0 4.79552,17.42157 -16.40643,17.06212"
     id="path49" />
  <path
     style="fill:none;stroke:#0000ff;stroke-width:0.378"
     d="m 665.07648,98.965652 c 0,0 -10.63273,13.944468 -32.09715,5.952718"
     id="path50" />
  <path
     style="fill:none;stroke:#0000ff;stroke-width:0.378"
     d="m 818.80054,205.10466 c 0,0 11.95576,20.26697 33.71021,8.68011"
     id="path51" />
  <text
     xml:space="preserve"
     style="font-size:16px;font-family:Arial;-inkscape-font-specification:Arial;text-align:start;writing-mode:lr-tb;direction:ltr;text-anchor:start;fill:#0000ff;stroke:#0000ff;stroke-width:0.378"
     x="383.85507"
     y="329.29373"
     id="text51"><tspan
       sodipodi:role="line"
       id="tspan51"
       x="383.85507"
       y="329.29373">10째</tspan></text>
  <text
     xml:space="preserve"
     style="font-size:16px;font-family:Arial;-inkscape-font-specification:Arial;text-align:start;writing-mode:lr-tb;direction:ltr;text-anchor:start;fill:#0000ff;stroke:#0000ff;stroke-width:0.378"
     x="453.98288"
     y="169.20857"
     id="text52"><tspan
       sodipodi:role="line"
       id="tspan52"
       x="453.98288"
       y="169.20857">30째</tspan></text>
  <text
     xml:space="preserve"
     style="font-size:16px;font-family:Arial;-inkscape-font-specification:Arial;text-align:start;writing-mode:lr-tb;direction:ltr;text-anchor:start;fill:#0000ff;stroke:#0000ff;stroke-width:0.378"
     x="642.10376"
     y="131.55737"
     id="text53"><tspan
       sodipodi:role="line"
       id="tspan53"
       x="642.10376"
       y="131.55737">50째</tspan></text>
  <text
     xml:space="preserve"
     style="font-size:16px;font-family:Arial;-inkscape-font-specification:Arial;text-align:start;writing-mode:lr-tb;direction:ltr;text-anchor:start;fill:#0000ff;stroke:#0000ff;stroke-width:0.378"
     x="818.54175"
     y="237.20021"
     id="text54"><tspan
       sodipodi:role="line"
       id="tspan54"
       x="818.54175"
       y="237.20021">70째</tspan></text>
</svg>
